/* XPM */
static char *result[] = {
/* columns rows colors chars-per-pixel */
"64 64 225 2 ",
"   c #7B5905",
".  c #7C5A0A",
"X  c #785604",
"o  c #795D16",
"O  c #7C6426",
"+  c #7D621F",
"@  c #3A4466",
"#  c #7F765A",
"$  c #776C4F",
"%  c #424C6D",
"&  c #535D7C",
"*  c #5C5D64",
"=  c #707070",
"-  c #545765",
";  c #825F0A",
":  c #835E06",
">  c #856109",
",  c #89640C",
"<  c #8E690F",
"1  c #8A6817",
"2  c #936D15",
"3  c #967015",
"4  c #9A7317",
"5  c #9B751B",
"6  c #99741B",
"7  c #916B0F",
"8  c #A37B1D",
"9  c #856A27",
"0  c #926F20",
"q  c #9C7B2B",
"w  c #977624",
"e  c #8A743C",
"r  c #9A7D34",
"t  c #876E30",
"y  c #A37C22",
"u  c #A27E2B",
"i  c #A07F30",
"p  c #887647",
"a  c #867A59",
"s  c #8D7844",
"d  c #827C6D",
"f  c #A58025",
"g  c #AA8324",
"h  c #A5822C",
"j  c #AA842C",
"k  c #AD892D",
"l  c #B38C2D",
"z  c #A48434",
"x  c #AE8A33",
"c  c #AD8B3A",
"v  c #A98635",
"b  c #B38C33",
"n  c #B98E33",
"m  c #B38D3B",
"M  c #BC9235",
"N  c #BC933A",
"B  c #B7963A",
"V  c #B09037",
"C  c #9F8136",
"Z  c #C09336",
"A  c #C1953B",
"S  c #C49B3C",
"D  c #C99C3D",
"F  c #C29A36",
"G  c #C9A13F",
"H  c #978149",
"J  c #9C8959",
"K  c #AA8D46",
"L  c #B49444",
"P  c #BC9A46",
"I  c #B99849",
"U  c #A18C56",
"Y  c #BA9E54",
"T  c #B59A51",
"R  c #AC924F",
"E  c #BDA04B",
"W  c #BDA157",
"Q  c #978A67",
"!  c #88877B",
"~  c #918B76",
"^  c #958B6D",
"/  c #A79669",
"(  c #C59A43",
")  c #C39D4A",
"_  c #CA9D44",
"`  c #CCA144",
"'  c #CBA24A",
"]  c #C6A347",
"[  c #D2A64B",
"{  c #D4AA4C",
"}  c #D4A849",
"|  c #C4A354",
" . c #CCA553",
".. c #CBA953",
"X. c #C2A65C",
"o. c #C6AB59",
"O. c #D4AB52",
"+. c #DAAE53",
"@. c #D3AD5B",
"#. c #D9AE5C",
"$. c #D1A655",
"%. c #D4B153",
"&. c #DCB254",
"*. c #DBB25D",
"=. c #DAB95C",
"-. c #DEB44D",
";. c #E1B455",
":. c #E3B65B",
">. c #E5BA5B",
",. c #EABD5E",
"<. c #E4B957",
"1. c #C7AC64",
"2. c #D4AD61",
"3. c #CCB36C",
"4. c #CBB265",
"5. c #DDB462",
"6. c #D7B867",
"7. c #D3BA74",
"8. c #D8BE77",
"9. c #CFB670",
"0. c #E3BA64",
"q. c #E9BD62",
"w. c #E3BC6A",
"e. c #E2B867",
"r. c #E2BE74",
"t. c #EBC25D",
"y. c #DCC068",
"u. c #DBC47B",
"i. c #EDC364",
"p. c #ECC36C",
"a. c #ECC96B",
"s. c #E6C468",
"d. c #F1C664",
"f. c #F5CA65",
"g. c #F1C769",
"h. c #F5CC6B",
"j. c #FACD6C",
"k. c #F9CB67",
"l. c #FBD26D",
"z. c #F5D16D",
"x. c #EEC673",
"c. c #E7C977",
"v. c #F4CC71",
"b. c #F5CD73",
"n. c #EAD177",
"m. c #F4D374",
"M. c #FCD474",
"N. c #FFD975",
"B. c #F4D47B",
"V. c #FDD57A",
"C. c #FEDB7B",
"Z. c #F4DB78",
"A. c #FFE37D",
"S. c #FFE87E",
"D. c #5B6683",
"F. c #6C7792",
"G. c #727C96",
"H. c #757F9A",
"J. c #797C88",
"K. c #989587",
"L. c #8B939A",
"P. c #8E9292",
"I. c #A19F92",
"U. c #9EA09F",
"Y. c #AAA38C",
"T. c #A6A599",
"R. c #B3AE9C",
"E. c #8590A8",
"W. c #8B99AE",
"Q. c #8A96A7",
"!. c #8C9BB4",
"~. c #95A4BB",
"^. c #98A7BE",
"/. c #9EA9BE",
"(. c #9CA4B3",
"). c #9BA2AF",
"_. c #ACB2B6",
"`. c #B3B6B7",
"'. c #AAADAF",
"]. c #DDC783",
"[. c #E4CE8A",
"{. c #E4CB85",
"}. c #E7D08E",
"|. c #E8D387",
" X c #F5DD83",
".X c #FDDB83",
"XX c #F8D885",
"oX c #EAD593",
"OX c #EDD897",
"+X c #EBD796",
"@X c #F2DD9C",
"#X c #F5DF90",
"$X c #FEE384",
"%X c #FEE48B",
"&X c #FDEB8C",
"*X c #FAE686",
"=X c #FEE594",
"-X c #FEEB93",
";X c #FDE69A",
":X c #FFEC9C",
">X c #F3E396",
",X c #FFF39B",
"<X c #FEF699",
"1X c #F6E2A2",
"2X c #F9E5A5",
"3X c #FFEDA3",
"4X c #FAE7A8",
"5X c #FDEAAB",
"6X c #F6EBA7",
"7X c #FEF2AD",
"8X c #FFF7A5",
"9X c #FFF6B3",
"0X c #FEF9B4",
"qX c #FEFBBC",
"wX c #EBE4A3",
"eX c #A5B1C6",
"rX c #A9B6CA",
"tX c #ADB6C4",
"yX c #B4BCC7",
"uX c #B3BFD2",
"iX c #B6C2D4",
"pX c #B8C3D5",
"aX c #BDC8DA",
"sX c #C0CBDC",
"dX c #FFFEC2",
/* pixels */
"sX/.D.D.eXaXaX/.D.D./.uX~.!.!.!.!.!.!.!.!.!.!.!.!.^.uXsXsXeXD.@ @ D.eXsXsXuX/.!.!.!.!.^.uX/.D.@ @ D.eXsXsXuX/.!.!.!.!.!.!.!.!.!.",
"uX/.G.F.W././.E.& D./.uX^.!.!.!.!.!.!.!.!.!.!.!.~.eXiXiXtXW.F.D.D.F.W.eXuXuX^.!.!.!.^.^./.!.F.D.D.F.W.eXpXpXeX~.!.!.!.!.!.!.!.!.",
"^.^./.!.F.D.D.& % D./.uX^.!.!.!.!.!.!.!.!.!.!.~.rXiXsXeXH.F.W././.!.F.H.eXrX^.!.!.~.rX/.G.F.W././.W.F.H.tXaXuXrX~.!.!.!.!.!.!.!.",
"!.~.rX/.G.& % @ @ D.eXuX^.!.!.!.!.!.!.!.!.!.^.eXiXiXeX!.F.H.eXsXpXeXH.F.W.eX/.~.^././.W.F.H.eXsXsXeXH.F.!.eXpXuXeX~.!.!.!.!.!.!.",
"!.!.~.^./.E.& @ @ D./.uX^.!.!.!.!.!.!.!.!.~.rXiXaXrXH.F.W.eXpXsXsXpXeX!.F.G.eXuXuX/.G.F.W.eXiXaXsXuXeXW.F.H.tXaXiXrX~.!.!.!.!.!.",
"!.!.!.^.rX/.G.& % D./.uX^.!.!.!.!.!.!.!.~.eXiXiXeX!.F.H.eXaXiXuXuXpXsXeXH.F.Q././.W.F.H.eXaXiXiXuXuXsXrXH.F.!.eXiXiXeX~.!.!.!.!.",
"!.!.!.!.~.^./.E.D.D./.uX^.!.!.!.!.!.!.~.rXiXsXtXH.F.W.eXpXiXeX^./.eXuXpXeXW.F.D.D.F.!.tXiXiXeX^.eXeXuXuXeXW.F.H.eXaXiXrX~.!.!.!.",
"!.!.!.!.!.^.iX^.D.D.^.uX^.!.!.!.!.!.^.eXiXpXtXQ.F.= / K C w 3 4 4 4 w q U U * - & H.eXaXiXrX~.!.!.~.rXuXsXeXH.F.!.eXiXiXeX~.!.!.",
"!.!.!.!.!.^.uX/.D.D./.uX~.!.!.!.!.~.rXiXaXeX= a H 5 8 g k l M M A A M l f 4 2 9 ! T.yXiXeX~.!.!.!.!.~.eXuXaXeX!.F.H.eXaXuXrX~.!.",
"!.!.!.!.!.~.uX/.D.D.eXuX~.!.!.!.~.eXiXiXT.H w f g G } ;.t.i.f.j.m.m.a.i.&.} M f 3 w H T.~.!.!.!.!.!.!.~.rXuXaXeXH.F.!.eXuXpXeX^.",
"!.!.!.!.!.^.uX/.D.D.^.uX^.!.!.^.tXiX`.J 5 g F ;.d.k.l.l.l.N.N.N.M.M.j.j.l.k.k.i.` n y 7 e L.W.!.!.!.!.!.~.eXiXpXeX!.F.G.eXaXiXuX",
"^.^.^.^.^.eXuX/.D.& E.^.^.^.^.eXyXY.f g F -.d.k.l.l.l.N.A.C.N.N.l.h.k.h.z.k.h.h.l.h.{ l 4 9 Q Q.!.!.!.!.!.~.rXuXaX/.D.D.E.eXpXsX",
"uXuXuXuXuXpXsXeXD.% & G.^.uXuX_./ f M -.t.k.k.N.N.N.N.N.N.l.l.l.f.f.f.k.z.z.z.M.l.M.j.t.` f 3 a E.!.!.!.!.!.~.eXuX/.D.% D.F.eXaX",
"aXsXsXsXsXuXeXE.& @ @ & E.eX(.J h l ;.d.l.l.l.N.S.N.N.l.j.,.t.t.t.t.i.f.j.z.m.M.V.N.M.h.t.` k 0 p L.!.!.!.!.!.^.uX^.D.@ @ D.E./.",
"sXsXsXsXsXeXH.& % @ @ % & & t y F t.k.l.N.N.N.N.A.k.t.G D D D ` G ` } { &.p.V..X.X.XM.b.M.N.a.g 2 9 E.!.!.!.!.^.uX/.D.@ @ @ D.D.",
"/.^././.^.E.& @ @ % & D.= p g _ d.l.N.N.N.A.l.t.;.G S F Z l Z Z F M N S O.&.0.x..XXXXX.X.X*X%Xy.N 2 t E.!.~.~.eXuX/.D.@ D.D.D.D.",
"D.D.D.D.D.& % @ @ & E.(.U g G d.N.N.C.N.N.z.+.` ( A Z ( 2.9.) u  .7.6.) ' #.q.w.p.a..X=X&X&X&X*Xn.V < p L.~.eXiXaX^.D.& E./././.",
"D.D.% @ @ @ @ % & H.eXR.v M t.N.N.A.A.M.t.{ ( A ( Z u  .oX@X9.2 3.1X@XX.( #.w.p.g.p.v.&X<X<X&X<X&X6.5 1 Q /.iXiXeXW.F.G.rXaXaXaX",
"^.E.& @ @ @ @ & E.eX`.c B s.A.C.N.N.j.&.A A Z N A Z u | OX4X3.1 3.5X@XY B  .x.XX.X.XM.a.*X<X<X<X<X&X%.5 + / aXeXH.F.W.rXpXaXaXsX",
"sXeXH.& % % & H.eXaX/ k =.C.C.C.N.V.:._ Z M M M Z u u ) OX4X3., 3.5X@XY m ..XX.X.X%X$Xm.n.<X8X<X<X&XA.V 7 H /.W.F.H.rXaXiXiXiXpX",
"sXuXeXE.& & E.eXiXR.h ] XX%X$X.XV.q.( Z M b u y q 0 2 T OX1X3.; 3.5X@XL q P y.n.%X&X%X$Xm.n.&X<X<X&X*X=.g < $ F.W.eXiXiXeX^.^.^.",
"uXuXpXeXD.D.eXaXiX/ k u.;X:X=X=Xb.+.( A n m 2X2X1X1X2X2X5X5X4X1X4X5X4XOX7.X.I E 7.n.$X$XC.h.a.<X<X&XS.z.G 3   F.rXaXiXrX~.!.!.!.",
"eXeXuX^.D.D./.uXU.K E =X:X:X;X%Xw.#.$.[ A x 4X4X5X5X5X5X5X5X5X5X5X5X5X5X5X5X6X].E | a.A.A.M.d..X&X&XS.A.a.g . Q iXiXeX~.!.!.!.!.",
"!.~.uX/.D.D./.yXK.x y.,X,X:X:X|.5.#.#.#.) L 5X5X5X5X5X5X5X5X5X5X5X5X5X5X5X5X5X6X}.W ..n.C.M.M.g.*X*XS.S.A.F 7 H iXrX^.!.!.!.!.!.",
"!.^.uX/.D.D./._.J N >X:X:X:X:Xp.#.#.#.#.$.( X.| | @X5X5X5X@X7.| X.1.].@X5X5X5X5X2Xu.P s.N.N.M.d.m.*XA.A.S.%.f 1 P.~.!.!.!.!.!.!.",
"!.^.uX/.D.D./.R.i ..,X:X:X:X#X*.#.#.#.e.#.$.) L q [.5X5X5XOXR 0 x m k z ].5X5X5X5X+XL %.M.V.M.g.i.C.$XA.A.t.f . ~ W.!.!.!.!.!.!.",
"!.^.uX/.D.D./.Y.f =.:X:X:X:Xx.#.5.*.*.*.5.5.#.$.K [.5X5X5XoXY u ` O.O.L X.1X5X5X5X@XL { j.M.l.h.i.M.S.A.A.z.l , # L.W.!.!.!.!.!.",
"!.~.uX/.D.D././ k c.:X,X3X,Xw.*.5.5.e.e.e.e.5.2.( [.5X5X5XOXY i &.a.i.' X.1X5X5X5XOXL ..g.z.j.j.d.z.S.N.A.z.G 7 O P.!.!.!.!.!.!.",
"!.^.uX/.D.D.eXK V n.,X,X3X,X0.0.e.e.r.q.w.e.e.5.) [.5X5X5X+XT i { s.@.N 3.4X5X5X4X[.c &.k.j.j.j.d.i.$XC.N.N.G 3 O J.!.!.!.!.!.!.",
"!.^.uX/.D.& E.v B  X,X<X<X>X0.p.q.w.q.r.r.r.w.e.) }.5X5X5XOXW r I E W 9.2X5X5X5X].L b &.d.d.q.q.>.,.$XN.N.N.-.5 . ! !.!.!.!.!.!.",
"!.^.uX/.D.% & u B  X<X<X8X>X>.p.b.q.b.b.r.b.r.q.) }.5X5X5X1X].3.8.].OX4X5X5X5X4XT 0 b +.>.,.q.>.>.>.C.N.N.l.=.7   K.~.!.!.!.!.!.",
"^.^.^.!.F.D.D.u E  X<X<X<X*Xq.q.r.x.b.r.b.r.b.r.$.}.5X5X5X5X5X5X5X5X5X5X5X5X5X4Xu.W x _ ;.:.>.:.:.>.C.V.N.Z.<.f   I.eX~.!.!.!.!.",
"iX/.G.F.W.eX/.h B A.&X:X:X.X0.q.q.x.r.x.x.x.x.w. .}.5X5X5X5X4X1X1X2X5X5X5X5X5X5X5X4X1.b [ +.;.;.:.:.V.V.M.M.<.5   Y.iXrX~.!.!.!.",
"/.W.F.H.eXaXaXh B Z.&X-X=XXX>.q.r.q.h.x.b.XXXXB.6.oX5X5X5XOXY w C C C L 7.+X5X5X5X5X1XK A +.+.+.+.:.V.XXV.M.<.4   K.iXiXeX^.^.^.",
"D.F.!.eXpXaXaXv B n.*X%X&X*Xq.g.M.M.V..X.X.X%XXX6.}.5X5X5X+XT q P ] L c q T @X5X5X5X5X8.b [ +.+.O.:..XV.V.V.+.3 X = _.aXiXuXuXuX",
"D.H.eXaXiXiXiXK l a.*X$X*X%Xg.h.b.V.V.V..X.X.XB.6.}.5X5X5XOXY c @.6.@...v z }.5X5X5X5X}.u _ [ [ $.:..XV.M.M.} 3 X = W.eXpXpXeX^.",
"/.eXpXiXeX^.^.J g =.S.$X$X%Xj.h.j.b.V.V..X.X.XXX6.oX5X5X5XOXY L w.a.p.5.I L }.5X5X5X5X}.u _ [ [ [ q.V.M.M.j.n , o K.F.G.eXeXH.D.",
"sXaXiXrX~.!.!.~ f %.A.S..X%XZ.g.j.V.M.V.V..X.Xc.o.}.5X5X5XOXY K 6.8.6.O.L W 1X5X5X5X5X7.u _ _ [ [ g.M.M.M.d.l : e P.D.& E.!.F.D.",
"aXiXeX~.!.!.W.K.h G C..X$X$X*Xg.j.b.b.V.V.B.y...c oX5X5X5XOXT q I P Y Y 9.OX5X5X5X5X4Xi Z [ } ` +.f.j.j.j.;.8 : ^ ).D.% & F.W./.",
"aXiXeX~.!.!.!.P.H n M.C.C.C.%Xm.g.j.M.b.m.p.c.{.].1X5X5X5X1X{.9.u.{.[.[.1X5X5X5X5X5Xr.w Z _ ` } ;.k.k.j.j.[ 3   K./.D.@ @ D.eXsX",
"sXaXiXrX^.!.!.W.~ f ..M.C.C..XZ.g.g.v.v.g. .@X5X5X5X5X5X5X5X5X5X5X5X5X5X5X5X5X5XOX7.i u A D D } ,.j.h.h.,.b , O _./.D.@ @ D./.sX",
"sXsXsXiXeX~.!.!.P.C M z.M.Z.C.V.h.d.h.h.w._ 1X5X5X5X5X5X5X5X5X5X5X5X5X5X4X4X@X}.W r u m Z Z D ,.k.k.k.k.;.y ; O rX/.D.@ @ & E./.",
"sXsXsXaXiXrX^.!.W.H g %.m.m.m.Z.B.p.i.d.i...8.7.9.3.1.].1X4X}.1.}.5X1X8.X.| ) i u u Z Z Z Z ` d.k.k.k.q.A 7 X P.uX/.D.@ @ % & D.",
"/.eXpXsXaXiXeX~.~.~ 8 B a.m.m.m.B.M.i.i.p.:.' m v w 0 T OX4X3.o 3.5X@XR w u i i A A A Z Z D ,.j.j.j.j.+.y : o ^.uXeXD.@ @ % & D.",
"D.H.eXsXaXaXpXrX~.W.s f { f.m.m.b.Z.a.i.i.p.i.*.O.P c X.@X4X9.1 9.5X@XT u L ( ( ( ( ( ( _ q.j.M.M.b.q.j , . ! ^.uX/.D.@ @ & E./.",
"D.F.!.eXpXaXaXpXeX~.L.C k %.b.m.m.m.Z.m.i.d.g.0.0. .P 1.OX4X9.0 9.5X@X| i ( $.$.) ( _ $.q.XXV.V.V.b.n 3   $ W.~.uX/.D.% & G.eXsX",
"/.W.F.H.rXaXsXaXiXrX~.J f M a.m.m.m.B.B.b.d.i.0.0.O.) 3.@X4X8.w 7.5X1XX.) $.2.2.$.$.2.{.XX.X.X.XV.*.y : + P.W./.uX/.D.& E.eXuXsX",
"iX/.G.F.!.rXpXsXaXiXeX).J q b q.Z.V.V..X.X%Xn.0.0.*.$. .| | | I o.X.| | 2.e.e.r.{.oX5X5X5X5X2X#X6.y : O d W.!.~.uX/.D.D.eXsXuXuX",
"^././.W.F.H.eXsXsXsXuXuXR.U y _ a.A.C..X.X%X%XB.x.e.5.@.@.@.@.6.5.2.@.@.6.w.x.|.6XdXqXqX0X0X7Xu.m < . # Q.!.!.^.uX^.D.D./.uXeX^.",
"!.~.rX/.G.F.W.eXpXsXsXsXsX`.r y E n.%X%X=X:X=X=X#X#X|.x.w.e.5.w.w.6.6.c.}.@X6XqXdXdXdXdXqX0X|.u < . # W.!.!.^.eXiX/.D.D.eXuX^.!.",
"!.!.~.^./.W.F.H.eXsXsXsXsXtXH.e f x n.8X7X0X7X3X;X;X;X;X:X;X>X;X1X2X5X7X9X9X0XqXqXdXqX0X6Xo.u ; . # W.!.!.~.rXpXaX/.D.D./.uX^.!.",
"!.!.!.~.rX/.G.F.!././././.W.F.J.J C V W wXqX0X3X;X;X=X;X:X:X:X:X3X3X5X7X5X7X7X0X9X9X6X|.L 3 ; O # Q.!.!.~.eXiXpXeXE.& D./.uX^.!.",
"!.!.!.~.~.^./.!.F.D.D.D.D.F.W.eX_./ h h W oX6X6X;X=X;X=X;X:X:X:X3X3X3X3X3X7X7X7X6X>X7.V 2 ; o d E.!.!.~.rXiXsXeXH.& % D./.uX^.!.",
"!.!.!.!.!.~.iX/.D.@ @ % & H.eXsXiXeX! H f V E y.c.=X=X&X&X&X-X;X;X:X:X:X3X3X>X|.o.L w < 1 s K.^.^.^.~.eXiXiXeXE.& @ @ D.^.uX^.!.",
"!.!.!.!.!.^.iX^.D.@ @ & E.eXuXuXeX~.!.!.! 1 3 f x B ..s.B.%X%X=X=X=X#XXX6.E x h 7 >   o K.sXuXuXiXiXiXiXaXeXH.& % @ @ D.^.uX^.!.",
"!.!.!.!.!.^.uX^.D.% & H.eXsXuXyX~.!.!.!.!.!.d # t 5 5 f f f k x k h y y 5 3 , > 9 p $ F.W./././.^./.^././.!.F.D.D.& % D.eXiXeX^.",
"!.!.!.!.!.^.uX/.D.& E.eXuXuXeX~.!.!.!.!.!.!.!.!.L.K.Q e 0 , : : , , : : 9 e Q Y.tXyXrXW.F.D.D.D.D.D.D.D.D.F.!././.E.& D.eXsXuXuX",
"^.~.!.!.!./.uX/.D.D./.sXpXyX~.!.!.!.!.!.!.!.!.!.!.(.yXyX`.U.* - * = U._.'._.tXuXuXuXsXeXH.& % @ @ @ @ % D.H.eXaXuX/.G.F.E.eXuXsX",
"uXrX~.!.!.^.uX/.D.D./.uXeX^.!.!.!.!.!.!.!.!.!.!.!./.uXsXsX^.D.& W.eXuXpXeX^.^.^./.eXuXuXeXE.& @ @ @ @ & E.eXuXaXeX~.eXW.F.H.rXsX",
"sXiXeX^.!.^.uX/.D.D./.uX^.!.!.!.!.!.!.!.!.!.!.!.!.^.uXsXsXeXD.D.eXaXsXuX~.!.!.!.!.^.rXuXsXeXH.& % % D.H.eXuXuXrX~.~.eX/.G.F.Q.eX",
"sXaXiXrX~.^.uX/.D.D./.uX^.!.!.!.!.!.!.!.!.!.!.!.!.^.uXsXsX/.D.D./.sXaXuX^.!.!.!.!.!.^.eXpXuXeXE.& & E.eXuXaXeX~.!.!.^.^.eXW.F.D.",
"^.rXiXiXeXeXuX^.D.D./.uX^.!.!.!.!.!.!.!.!.!.!.!.!.^.uXsXsX/.D.D.eXsXsXuX^.!.!.!.!.!.!.~.rXuXaX/.D.D.eXuXuXrX~.!.!.!.!.~.eX/.G.D.",
"D.H.rXaXiXiXaX/.D.D./.uX~.!.!.!.!.!.!.!.!.!.!.!.!.^.uXsXsX/.D.D.^.sXaXiX^.!.!.!.!.!.!.!.^.eXuX/.D.D./.uXeX^.!.!.!.!.!.!.~.^././.",
"@ D./.sXsXsXsX/.D.D./.uX^.!.!.!.!.!.!.!.!.!.!.!.!.^.uXsXaX/.D.D.eXsXaXuX^.!.!.!.!.!.!.!.!.^.uX^.D.D.eXuX^.!.!.!.!.!.!.!.!./.uXaX"
};
