/* XPM */
static char *result[] = {
/* columns rows colors chars-per-pixel */
"64 64 118 2 ",
"   c #3E1386",
".  c #44168D",
"X  c #4A158F",
"o  c #45198D",
"O  c #461692",
"+  c #491493",
"@  c #4B1C90",
"#  c #47169C",
"$  c #4A1499",
"%  c #491A9C",
"&  c #541B96",
"*  c #571A99",
"=  c #581B99",
"-  c #4C1BA6",
";  c #4E16AE",
":  c #4E1AAD",
">  c #5317A1",
",  c #5A17A5",
"<  c #5B1AA4",
"1  c #5117AF",
"2  c #511CAE",
"3  c #4F16B2",
"4  c #4E18B1",
"5  c #5315B5",
"6  c #5816B6",
"7  c #531AB3",
"8  c #5A1BB5",
"9  c #5615BA",
"0  c #5A15BD",
"q  c #5619B9",
"w  c #5C19BB",
"e  c #611CA8",
"r  c #6116BD",
"t  c #621ABE",
"y  c #4F20AA",
"u  c #5122A7",
"i  c #5221AB",
"p  c #5921B3",
"a  c #6420A7",
"s  c #6620AC",
"d  c #6822AD",
"f  c #6327B0",
"g  c #6028B3",
"h  c #6120BC",
"j  c #7756A7",
"k  c #7B56AC",
"l  c #7C59AD",
"z  c #7A56B0",
"x  c #7C5AB0",
"c  c #7C59BC",
"v  c #5E15C1",
"b  c #5F19C1",
"n  c #6316C3",
"m  c #6817C7",
"M  c #641AC3",
"N  c #6A1BC5",
"B  c #6716C8",
"V  c #6817C9",
"C  c #6D1BC9",
"Z  c #701DC6",
"A  c #721DCB",
"S  c #781FCD",
"D  c #6622C0",
"F  c #6D21C6",
"G  c #6F28C6",
"H  c #6E20C8",
"J  c #7323C7",
"K  c #7129C7",
"L  c #7323CA",
"P  c #7A24CE",
"I  c #7529C9",
"U  c #7C2ACE",
"Y  c #7722D1",
"T  c #7D25D0",
"R  c #7F29D0",
"E  c #7F57C1",
"W  c #815AAE",
"Q  c #845BB1",
"!  c #885DB4",
"~  c #8060B0",
"^  c #812CCF",
"/  c #8032CD",
"(  c #8027D2",
")  c #842CD3",
"_  c #882ED6",
"`  c #8532D2",
"'  c #8B34D6",
"]  c #8C3AD5",
"[  c #8E35D8",
"{  c #903DD7",
"}  c #9036D9",
"|  c #933BD9",
" . c #8A47CE",
".. c #8057C3",
"X. c #815BC4",
"o. c #8557CF",
"O. c #8A56CF",
"+. c #8559CD",
"@. c #895ECC",
"#. c #9441D7",
"$. c #9642D9",
"%. c #9E4DDC",
"&. c #8757D1",
"*. c #8758D1",
"=. c #8C59D4",
"-. c #905DD5",
";. c #985DD5",
":. c #965DDA",
">. c #A04CDE",
",. c #9760D9",
"<. c #9C60DD",
"1. c #A163DF",
"2. c #A893C6",
"3. c #AD9CCA",
"4. c #B09DCC",
"5. c #C4B6DB",
"6. c #E0D5ED",
"7. c #E6D7F6",
/* pixels */
"5.3.3.3.4.4.4.3.4.4.4.4.3.3.4.4.3.2.W k z z j k k k l z Q x Q Q ! ! Q Q z l W l W W l W Q Q Q Q W Q Q l k k j j j j j k k k W 6.",
"O.+ X O o o o o @ & & & & * * * = X X X . . . . . . o o . $ $ O O . . O + O O . + $ $ + = a s d a < , , $ $ $ $ $ $ $ $ > > > e ",
"=.9 9 9 4 b V H G H G L L C B B V m m m n 9 5 9 5 5 5 7 9 v M B B 0 0 0 9 4 4 3 0 M m n P T T ( m v 0 n 6 , 1 1 5 5 ; ; 0 v 0 v ",
"=.v 9 9 v b H H F H H H A V M n V m m m B 5 9 9 5 5 5 9 5 B B M B 0 0 0 9 3 3 4 w n M m A T ( R C 0 0 0 6 1 1 ; ; 5 5 ; 0 0 0 v ",
"=.v v 9 9 v C C N L A L C C M V N n V B n 9 9 9 q q q q 5 b M V v v v 9 7 7 2 7 w N t N A ( ( ( Z n r 0 9 1 1 6 6 6 7 8 v n r r ",
" .9 v v 9 v V H C C A C C L H G C M N N B 3 3 5 7 7 p q 9 b b b v 9 9 q 7 7 2 i w r h M C L L P N 0 r 9 5 5 1 6 w 0 0 0 n n n v ",
"E K $.$.#.] R _ ) C M M N P _ ` ` P A A A 3 ; : y i i 2 4 q q 9 v 3 3 q 7 y y y 7 w w 0 0 0 0 0 0 0 6 5 6 9 9 0 r n b b n M M 0 ",
"&.H $.| #.R R R ) H N n N P ` ) ) P A L C ; : : y i 2 2 4 0 9 v v 3 3 q i 4 i y 7 w 9 0 0 9 9 0 0 6 0 9 9 9 9 0 0 0 0 b M n n 0 ",
"=.G $.#.#.' ) ) R G N N N P ` ` ) P Z A A 3 ; 3 ; 7 3 ; 5 v 0 v 9 9 9 5 7 : : i 7 w q w q q q 0 0 5 5 w w w r 0 0 0 0 v v v v v ",
":.Y | { { ` U U R K G G H P R R ) A Z A C 5 5 1 ; 5 5 9 9 V n V v v M b 0 5 9 7 w t M w b r w n 0 5 9 8 r r 8 1 9 0 9 v n B B n ",
":.A Y P Y C V V C ] #.#.#.R F V m 6 9 6 5 ; 1 ; 5 0 v v v S S S S S A P N v v w M M D N N H C C r 9 6 6 8 p 8 1 9 0 0 v V A V A ",
":.A P Y P A C C N ] #.#.$.R M N m 6 9 5 5 5 ; 5 5 0 0 0 n S S S S A P A C 0 v 0 b N N N N H C A r 9 6 t 8 8 1 1 v 0 9 v A A A V ",
"1.A Y Y Y H H N C ] $.$.$.R V V Z t w 8 5 : ; 4 : 0 0 0 v A S S S S Y Y C n n n b V V M F H F D w 7 7 9 1 ; 1 1 0 0 0 9 m m A A ",
"1.V C C D F N F F U / ` ` H b b N r 8 8 3 9 5 7 6 H H H C A A A A A A S C v 0 0 0 b n n K ] ] ] K r r n 9 5 1 1 5 5 5 1 m m n m ",
"1.v 9 9 q D D N N N H C C 0 3 5 w g 8 8 ; v v v n ) ` ) ) N N V V A A A C 0 0 w 0 v v w I $.$.$.U N N m 6 5 5 5 1 5 3 1 r n n n ",
"<.v 9 9 q b C N D N C C Z w 5 5 w w e 7 : v v v M ` ) ` _ N V V V A A Y n 0 0 9 0 v v v I $.$.%.U N M m 6 5 5 5 1 1 3 ; r n r B ",
":.b b q q b N H N C C C C n 6 5 6 1 2 2 : w M w M ` ` ` ) M N N H L H L M 9 9 9 r n n n P $.$.$.U N N N 8 i 2 4 : : : y w M b M ",
"@.q 7 7 4 p b b v 0 w w r 6 1 1 2 9 0 0 w K L K H P L L P w 8 w w h w b 0 5 9 9 0 6 w 6 M N N M G I P I F M M M 4 4 4 7 7 i 2 7 ",
"@.7 i i 4 q q q 0 5 2 5 6 1 8 8 1 n n C N ^ R ) R M V M M : 2 y y 7 7 9 5 5 5 9 6 6 1 7 7 v v 0 G P P I H D N n 4 5 4 4 i y : 2 ",
"@.p 2 i 4 q q q 9 6 1 2 1 1 , 1 ; n M n D ^ ^ U R M M M M 4 y 7 i 4 7 5 5 5 5 9 6 1 6 7 9 n v r F P P U F N N N 3 4 4 7 2 : : 2 ",
"@.4 4 i 4 9 0 v n 6 7 1 2 : : : i D D F M ^ ^ ^ U M V C N i u : i 7 7 7 4 7 7 7 1 1 ; 6 w n n n C Y T P C N N M 7 7 7 7 : : 2 i ",
"X.7 i : 4 9 9 9 0 6 8 6 5 q r r h U ` ` ` C H H N 7 7 7 7 : u y y i 2 2 p 7 7 q 5 1 ; 6 8 e t 7 w M M M K U U U C C A L 7 2 4 y ",
"X.p 2 7 5 5 9 9 w 6 9 7 5 0 n M M ] ] #.{ N M M M ; 4 : y y y y y y i i 7 q 7 9 5 3 3 6 8 8 8 1 9 v v 9 I ) / ) A A L Z 7 : : i ",
"E 7 5 5 9 9 9 9 9 5 6 5 7 w N M t ] { { { M M n M 4 : 4 : y : : y 2 2 2 i q q 9 5 3 : 2 1 8 8 6 w v v 9 I ( ) ) C A A A 8 7 7 y ",
"*.q q 4 6 0 0 6 9 5 5 3 7 w M D M ] ] { } m m B v ; 3 3 ; ; ; ; 4 4 4 : 4 q 7 q 7 i y 2 5 2 1 , w r n 0 I _ ( ) A A S S 6 1 6 : ",
"*.b H H A C m m n 9 9 9 q G U U U U U U S 6 5 ; ; ; ; ; ; 9 5 9 q q q q q q q q w r M n 0 9 5 6 6 8 7 4 0 0 0 v ) ) ) ) m n n r ",
"+.V Y Y T A C V C r 0 0 0 K ` ` ) L Z A A 3 5 1 3 ; ; ; ; 9 9 9 5 9 9 q q w b q r M w n 0 6 5 6 6 6 7 : 9 0 0 v ) _ ) _ m n n 0 ",
"+.C Y Y T A V C M w 9 9 0 K ) ` ) L A A A 1 1 1 3 ; 3 3 ; 9 9 9 9 5 5 q q w q w w r M n 0 5 5 6 6 6 6 7 9 0 v 0 ) ) ) ^ n n n n ",
"&.M U P P C n B N w q q q I ` ) ) P C A A 5 1 1 3 ; 3 5 3 9 9 9 q 7 w q 0 0 0 w b M M M 0 5 5 9 5 5 1 : q 0 9 q U U U T n n n v ",
"&.V n V M 0 9 9 9 7 7 7 7 w D N N v v v v 5 5 5 3 9 9 9 9 5 5 5 7 N H C C M M M N H H C C C C Z w 1 5 : : 7 2 4 9 9 0 9 r n 0 n ",
"*.B v n n 0 3 5 7 7 7 7 7 w N b n v 0 0 0 9 5 9 3 9 9 9 9 9 5 5 q H C C N n M M N H A C C C C V w 5 3 : 7 : 2 : 9 9 9 9 0 n n n ",
"+.V n n n 0 9 3 9 7 7 7 7 w M M n 0 0 v v 0 6 6 9 0 9 9 9 9 5 ; 7 H C C N M M M C H C C C C C V w 3 3 4 : 2 ; ; 9 6 9 9 n v n v ",
"&.V v B v v 9 3 5 7 4 7 7 w M M n 0 9 0 0 9 0 9 6 0 0 0 9 9 5 3 7 N H C N M M n C C C C C M v M v 3 3 4 4 : ; ; b b b v n n n n ",
"&.Y V A V v v v q 7 q 5 7 0 v b v 0 9 0 n r r r r 0 0 9 9 3 3 ; 2 H L H P ` ` ) ] { { { U v v v 9 3 3 3 4 : : 4 V n V V V V C M ",
"&.Y A A A B 9 v 0 q 4 7 7 0 b b v v 0 0 r r r r 0 0 0 9 9 3 3 ; i H H C P ) ) ` ' { #.{ U v 9 v 9 5 3 3 ; : ; 4 M C V C V V B M ",
"o.Y A A A v v 9 0 q q 5 4 b v M n 9 0 0 0 0 0 0 0 9 9 9 5 3 ; 3 7 L L C P ` ` ) { { { { U b v v 9 5 9 4 4 4 4 4 C M C V n n n V ",
"&.A C A C M v v 5 9 5 5 9 n N N C n n M r 9 9 9 9 6 6 5 5 ; 3 3 7 C C C G R U ) ) ` ' ' P m m n r 9 0 q 5 3 3 4 n b b v n v n v ",
"&.n v v v 9 3 9 5 q 9 9 9 H R ( T T Y P ( 5 5 6 6 5 6 ; 3 9 9 9 9 0 0 w M H L K A C H C A A Z S V N n n 9 9 5 q b b v v 0 0 v 0 ",
"E V v b v v 5 5 5 q 9 9 0 C ( ( ( P U P ( 5 5 5 5 5 ; 5 ; 0 9 9 9 0 0 w M L C L A Z Z A A A A S Z B n n 9 9 5 9 b v 0 v v v 0 0 ",
"=.V v b v 9 5 9 7 q 0 w 0 K U R ( ( T T ( 0 0 6 5 ; 5 5 ; 0 0 0 9 v 0 0 M A L A A C A A A A A Z N n n M q 7 q 4 0 q 0 v 9 9 9 v ",
"&.V v v b v 3 3 7 q q w q G U P U ( ( ( ( t t J t 5 9 5 9 0 0 0 9 n n n m C C A P ( ^ ( ( U P S N 0 0 w 7 p i 7 q q 9 9 9 9 9 v ",
"*.b 5 5 3 3 3 3 7 u u u - 7 q q 0 ( _ ) ( _ _ _ ( 0 0 0 0 0 v 9 0 C C C N n n m ^ } | | ' ) _ ) D 4 7 i i i i : 5 5 5 5 3 9 5 3 ",
"*.b v 5 9 3 5 3 7 u u u 2 7 q q n P ) ) _ ) _ ) ( 9 0 0 0 0 0 9 b C C A N n n n ) | | | ' _ _ ) D 3 5 7 i i i 7 9 5 9 9 3 3 3 9 ",
"-.b 5 5 9 5 9 q 5 2 : - u 2 6 w 0 U ^ ^ ( _ _ _ ) 0 v 0 0 0 9 9 9 C C A C V C C ) | | | ' ) ) ) D 5 7 7 7 7 : 7 9 9 9 5 3 9 9 5 ",
"<.M 9 9 v b v w w 7 : : i p q q 9 K I P S _ _ _ _ C H C n v v 9 v M V C P ) _ _ _ _ _ ( A r v w 7 2 y 2 7 9 5 9 P L Y Y v v v v ",
"<.A v v v C A A A w 5 5 q 2 i i 3 0 v 0 r | | | } } } { ` v v v b V n V Y { [ [ _ ( ( ( N 5 9 5 7 y : : 7 q 0 9 ) ) ) ) v v v v ",
"<.C v v n C S S A q 3 4 4 2 i 4 4 0 v n r | | | | [ [ [ ' v v v v V V C Y } [ [ _ ( ( ( N 9 5 5 2 : : 2 7 0 0 9 ) ) R _ v v v v ",
"<.H v 0 B Z S A A r 9 9 4 q 4 4 7 w v r r { } | } [ [ ' ' v v v v V V C U [ [ { ) P U P D 5 5 5 : - : 8 9 v b v _ ) _ ) v v v v ",
"1.H v v b Y Y R R Y Y C H b 4 q 4 q 7 q q G G G K ' ' _ ` V V V V C C A T _ ' ` K N M M w 2 2 1 5 9 9 0 L ^ ( ( ' [ _ ' n 0 0 v ",
"1.C v v b Y _ _ _ _ T _ R M 3 3 7 i i 7 3 9 9 9 n ) _ _ _ A A A A A A A P ) ( ^ N 9 7 q 2 - u - 7 9 9 v P ) ) ) [ [ [ ' v 0 v v ",
"1.V 9 v b Y R ' _ R R R R b 5 9 7 4 2 2 3 q 9 q t _ _ _ _ A A H A C Z A Y ) ) ) D 9 9 q 7 u 2 2 5 0 9 v Y _ ) _ [ [ [ ' b 0 0 v ",
",.F b 9 b Y ' R R _ _ T T v 9 9 9 4 7 4 7 7 q q w ` ` ) ` C A V A A C C U ( ) ) F 8 8 7 7 2 2 1 9 v v v Y ) ) R ' ' ' ' M 0 0 v ",
"*.b v 5 v b D G P R ) ) _ Y P L K 5 5 7 7 u u u 1 D D M M b v v v v v n b w w h p i i i 7 5 7 w N A S Z ( ) _ R v 9 9 9 3 3 5 5 ",
"*.q q 5 5 q v 3 0 Y _ _ _ R ( T R 7 5 5 7 u u u 2 0 0 0 v 9 v 9 v v v v 9 9 7 q i i i 2 7 9 9 0 Z P P T ( _ _ ) 9 3 9 5 3 3 3 5 ",
"*.b q q 5 b 5 b 0 U _ _ ` ) ( ( ( 6 5 7 7 y u u 2 9 0 q 9 v 9 9 9 v v 0 0 7 7 7 u i i 2 6 w 9 r A T S Y ) ) _ ) 3 9 3 9 5 3 3 5 ",
"*.q 4 q q q q q 5 P ) ` _ ) ( ( ^ r 9 5 7 : 2 - u q w q 9 9 9 v 9 0 v v 9 7 5 5 2 : 2 2 9 0 0 n L U T A ( _ ) ) 3 9 9 9 3 3 3 4 ",
"E v 9 3 q q 7 q 5 D H G L ) { | | A Z N N 2 ; 5 i 7 7 7 9 9 9 9 v 9 v q q : : 4 3 3 7 5 M U U ( ( P Y A b 0 0 9 ; ; : 4 4 3 3 5 ",
"E 5 5 9 7 7 q 7 5 b M b n ` >.>.>.( P P U 1 1 1 7 4 7 4 3 9 0 0 v 9 9 9 4 : : y 3 9 9 9 N ( ( ) ( P S Z 0 5 5 3 4 ; ; - 3 3 5 5 ",
"=.b 9 3 q p 5 5 q w M M M ` >.>.>.( S S P 5 5 5 4 4 4 7 3 9 0 0 9 9 9 5 4 : : 4 3 5 5 9 N ^ ( ) P A A Z 0 5 5 5 4 ; ; y 7 7 4 9 ",
"E b 3 5 9 3 5 5 q 0 b M b / %.%.>.( T S A 9 5 9 7 4 3 3 3 v 0 0 v v v v q 4 4 4 5 0 9 0 N ( ( ( A C C C 9 5 5 3 4 ; ; y 7 7 4 9 ",
"<.q 4 y 2 6 9 9 r t t N M D H L S A A A A 0 v 0 9 9 0 9 0 S A S S m Z m M 9 v 9 m Z Z A A A S S r 5 5 5 3 ; 5 5 5 5 4 4 2 7 4 q ",
",.q 4 y - 8 w w w t N t M N M C V V A V V v v r v 9 9 v 0 S S P S C V C v 9 v 9 m A A A A A A S r 9 5 5 3 3 : ; 9 5 5 p 2 2 4 q ",
",.q y - y 1 r 6 8 t r t r N M C Z Z Z Z m 0 0 0 6 5 0 9 0 S S ( S m N N r 5 3 9 r Z Z Z A Z t Z 0 ; ; 3 ; - - - 4 4 4 ; ; 4 4 3 ",
"7.p -   % , 6 6 6 r r r r r t M r Z r Z t 0 8 8 5 6 6 7 , J J J J t t N w 5 5 5 r Z Z Z Z Z ] ;.O.....c c c E c E X.E E E E E E "
};
