/* XPM */
static char *result[] = {
/* columns rows colors chars-per-pixel */
"64 64 32 1 ",
"  c #C0CBDC",
". c #9EA9BE",
"X c #5B6683",
"o c #5C6684",
"O c #9FA9BF",
"+ c #B3BFD2",
"@ c #98A7BE",
"# c #8B9BB4",
"$ c #3A4466",
"% c #9DA9BE",
"& c #717C97",
"* c #6C7792",
"= c #8E98B0",
"- c #8590A8",
"; c #535D7C",
": c #8E9EB7",
"> c #95A4BC",
", c #A2B0C6",
"< c #B6C2D5",
"1 c #B8C3D5",
"2 c #A7B2C6",
"3 c #9AA8BE",
"4 c #B6C2D4",
"5 c #8E9EB6",
"6 c #424C6D",
"7 c #A9B6CB",
"8 c #BDC8DA",
"9 c #757F9A",
"0 c #A9B6CA",
"q c #95A4BB",
"w c #BDC8D9",
"e c #A2B0C5",
/* pixels */
" .XoO  .XoO+@############@+  .X$$oO  +@####@+.X$$oO  +@#########",
"+%&*=..-;oO+@##########:>,<12=*oo*=21+@##:>3%=*oo*=214,>5#######",
"@3%=*XX;6oO+@##########>7<829*=OO=*92+@##>7%&*=OO=*928<0q#######",
"#>0%&;6$$oO+@########:>,<12=*92  29*=%3@@3%=*92  29*=214,>5#####",
"#5q3%-;$$oO+@########>7<829*=21  12=*&%++%&*=21  12=*928<0q#####",
"###>0%&;6oO+@######:>,<12=*92w4++4829*=..=*92w4++4829*=214,>5###",
"###5q3%-;oO+@######>7<829*=214e@@,<12=*XX*=214e@@,<12=*928<0q###",
"#####@+.XoO+@####:>,<12=*92w40q##>048.X6;92w40q##>04829*=214,>5#",
"#####@+.XoO+@####>7<829*=214eq5##5q,<.X;-214eq5##5q,<12=*928<0q#",
"#####@+.XoO+@##:>,<12=*92w40q######@+.XoOw40q######>04829*=214,@",
"#####@+.XoO+@##>7<829*=214eq5######@+.XoO4eq5######5q,<12=*928<+",
"@@@@@,<.X;-%3@@,<12=*92w40q########@+.XoO4,>5########>048.X;-21 ",
"+++++<8.X6;&%++<829*=214eq5########@+.XoO8<0q########5q,<.X6;92 ",
"     12-;$$;-....=*92  +@##########@+.X;-214,>5########@+.X$$;-.",
"     29;6$$6;XXXX*=21  +@##########@+.X6;928<0q########@+.X$$6;X",
".....-;$$6;oooooo*=21  +@########:>,<.X$$;-214,>5####:>,<.X6;ooo",
"XXXXX;6$$;-OOOOOO=*92  +@########>7<8.X$$6;928<0q####>7<8.X;-OOO",
"o;6$$$$6;92w4++4829*=214,>5####:>,<12=*oooo*=214,@@@@,<12=*92   ",
"O-;$$$$;-214e@@,<12=*928<0q####>7<829*=OOOO=*928<++++<829*=21   ",
" 29;66;92w40q##>04829*=214,@@@@,<12=*92    29*=21    12=*92w4+++",
" 12-;;-214eq5##5q,<12=*928<++++<829*=21    12=*92    29*=214e@@@",
"+48.XoOw40q######>04829*=21    12=*92w4++++4829*=....=*92w40q###",
"@,<.XoO4eq5######5q,<12=*92    29*=214e@@@@,<12=*XXXX*=214eq5###",
"#@+.XoO+@##########>048.X;-....=*92w40q####>04829;66;92w40q#####",
"#@+.XoO+@##########5q,<.X6;XXXX*=214eq5####5q,<12-;;-214eq5#####",
"#@+.XoO+@############@+.X$$$$6;92w40q########>048.XoO  +@#######",
"#@+.XoO+@############@+.X$$$$;-214eq5########5q,<.XoO  +@#######",
"#@+.XoO4,>5##########@+.X$$$$oO  +@############@+.XoO  +@#######",
"#@+.XoO8<0q##########@+.X$$$$oO  +@############@+.XoO  +@#######",
"#@+.X;-214,>5######:>,<.X6;oo*=214,>5##########@+.X;-214,>5#####",
"#@+.X6;928<0q######>7<8.X;-OO=*928<0q##########@+.X6;928<0q#####",
"@3%=*oo*=214,>5##:>,<12=*92  29*=214,>5######:>,<.X$$;-214,>5###",
"+%&*=OO=*928<0q##>7<829*=21  12=*928<0q######>7<8.X$$6;928<0q###",
".=*92  29*=214,@@,<12=*92w4++4829*=214,>5##:>,<12=*oooo*=214,@@@",
"X*=21  12=*928<++<829*=214e@@,<12=*928<0q##>7<829*=OOOO=*928<+++",
"o92w4++4829*=21  12=*92w40q##>04829*=214,@@,<12=*92    29*=2112.",
"O214e@@,<12=*92  29*=214eq5##5q,<12=*928<++<829*=21    12=*9229X",
" w40q##>04829*=..-;oOw40q######>04829*=......=*92w4++++48.X;-=*o",
" 4eq5##5q,<12=*XX;6oO4eq5######5q,<12=*XXXXXX*=214e@@@@,<.X6;*=O",
" 4,>5####>04829;6$$oO+@##########>04829;6$$6;92w40q####@+.X$$oO ",
" 8<0q####5q,<12-;$$oO+@##########5q,<12-;$$;-214eq5####@+.X$$oO ",
"   4,>5####>04829;6oO+@############>048.X6;92w40q######@+.X$$;-.",
"   8<0q####5q,<12-;oO+@############5q,<.X;-214eq5######@+.X$$6;X",
".21  4,>5####@+  .XoO4,>5############@+.XoOw40q########@+.X$$6;o",
"X92  8<0q####@+  .XoO8<0q############@+.XoO4eq5########@+.X$$;-O",
"o*=21  4,>5##@+  .X;-214,>5##########@+.XoO+@##########@+.X6;92 ",
"O=*92  8<0q##@+  .X6;928<0q##########@+.XoO+@##########@+.X;-21 ",
"+%&*=21  4,@@,<12=*oo*=214,>5######:>,<.XoO+@##########@+.XoOw4+",
"@3%=*92  8<++<829*=OO=*928<0q######>7<8.XoO+@##########@+.XoO4e@",
"#>0%&*=21    12=*92  29*=214,>5##:>,<12-;oO+@########:>,<.XoO+@#",
"#5q3%=*92    29*=21  12=*928<0q##>7<829;6oO+@########>7<8.XoO+@#",
"###>0%&*=....=*92w4++4829*=214,@@,<12-;$$oO4,>5####:>,<12-;oO+@#",
"###5q3%=*XXXX*=214e@@,<12=*928<++<829;6$$oO8<0q####>7<829;6oO+@#",
"#####@+.X$$6;92w40q##>04829*=......=*oooo*=214,@@@@,<12-;$$oO+@#",
"#####@+.X$$;-214eq5##5q,<12=*XXXXXX*=OOOO=*928<++++<829;6$$oO+@#",
"#####@+.X6;92w40q######>04829;6$$6;92    29*=........=*oo;6oO4,@",
"#####@+.X;-214eq5######5q,<12-;$$;-21    12=*XXXXXXXX*=OO-;oO8<+",
"@>5##@+.XoOw40q##########@+  .X6;92w4++++4829;6$$$$6;92w4%&*=21 ",
"+0q##@+.XoO4eq5##########@+  .X;-214e@@@@,<12-;$$$$;-214e3%=*92 ",
" 4,>5@+.XoO+@############@+  .XoO  +@####>04829;66;92w40q>0%&*=.",
" 8<0q@+.XoO+@############@+  .XoO  +@####5q,<12-;;-214eq55q3%=*X",
".214,,<.XoO+@############@+  .XoO  +@######>048.XoOw40q####>0%&o",
"X928<<8.XoO+@############@+  .XoO  +@######5q,<.XoO4eq5####5q3%O",
"$oO    .XoO+@############@+  .XoO  +@########@+.XoO+@########@+ "
};
