/* XPM */
static char *result[] = {
/* columns rows colors chars-per-pixel */
"64 64 237 2 ",
"   c #060606",
".  c #0B0B0B",
"X  c #06070A",
"o  c #0D131B",
"O  c #131313",
"+  c #191716",
"@  c #1B1A1A",
"#  c #16171B",
"$  c #120C0D",
"%  c #221C1A",
"&  c #2F160C",
"*  c #31281D",
"=  c #0D1728",
"-  c #171C27",
";  c #091537",
":  c #0A152E",
">  c #12213D",
",  c #162337",
"<  c #282525",
"1  c #342B26",
"2  c #3C3B3B",
"3  c #373432",
"4  c #323433",
"5  c #45290F",
"6  c #47372D",
"7  c #523A2D",
"8  c #354433",
"9  c #5A4436",
"0  c #474F34",
"q  c #654937",
"w  c #74533D",
"e  c #6D4B38",
"r  c #7A7D2B",
"t  c #071B4A",
"y  c #0A1C4C",
"u  c #081944",
"i  c #0B1F52",
"p  c #0F2348",
"a  c #142746",
"s  c #0B2254",
"d  c #0D2C5D",
"f  c #0D2758",
"g  c #122B57",
"h  c #1A3458",
"j  c #1D324E",
"k  c #293850",
"l  c #0C2C62",
"z  c #122C64",
"x  c #0E336B",
"c  c #143364",
"v  c #14346C",
"b  c #1A3A6A",
"n  c #133B73",
"m  c #133C7B",
"M  c #193A77",
"N  c #0E3977",
"B  c #233E69",
"V  c #3A4556",
"C  c #18427C",
"Z  c #1E446E",
"A  c #2A436B",
"S  c #3A4466",
"D  c #344B6A",
"F  c #274876",
"G  c #355475",
"H  c #3B616F",
"J  c #4B4A4A",
"K  c #5D5E5B",
"L  c #554C48",
"P  c #675447",
"I  c #6E5347",
"U  c #6B7355",
"Y  c #424C6D",
"T  c #465977",
"R  c #535D7C",
"E  c #435A68",
"W  c #556A71",
"Q  c #6C6D70",
"!  c #506A5E",
"~  c #8F6B30",
"^  c #825B28",
"/  c #885F47",
"(  c #966548",
")  c #8A6852",
"_  c #906D55",
"`  c #BD754E",
"'  c #BC7853",
"]  c #AD7453",
"[  c #8F786B",
"{  c #A47D61",
"}  c #C37D56",
"|  c #7D8B4A",
" . c #A6A22E",
".. c #C8B71B",
"X. c #CABD30",
"o. c #D6C41F",
"O. c #DACD2E",
"+. c #E9D62A",
"@. c #F6E639",
"#. c #8C9347",
"$. c #8F9052",
"%. c #B08954",
"&. c #968C71",
"*. c #B7896A",
"=. c #AC8D75",
"-. c #A6B06F",
";. c #C5825B",
":. c #C9865E",
">. c #CD8C65",
",. c #C98B67",
"<. c #CD926C",
"1. c #D1936C",
"2. c #C99876",
"3. c #D69A73",
"4. c #D59D7A",
"5. c #DCA57D",
"6. c #D7A37C",
"7. c #CFCF57",
"8. c #F2E55B",
"9. c #F6E975",
"0. c #EEEA73",
"q. c #DCD65F",
"w. c #133E82",
"e. c #0F3C81",
"r. c #154284",
"t. c #15448D",
"y. c #1A468B",
"u. c #1B4687",
"i. c #1C4B93",
"p. c #164994",
"a. c #19569F",
"s. c #244B87",
"d. c #395787",
"f. c #244E93",
"g. c #24559B",
"h. c #275598",
"j. c #1752A6",
"k. c #185ABA",
"l. c #2759A4",
"z. c #3965A6",
"x. c #3466B7",
"c. c #36639B",
"v. c #5B6683",
"b. c #566B8A",
"n. c #4B6898",
"m. c #506E8D",
"M. c #6C7792",
"N. c #657798",
"B. c #717C96",
"V. c #757F9A",
"C. c #667388",
"Z. c #527AB5",
"A. c #4F72A8",
"S. c #637DA7",
"D. c #465C82",
"F. c #1A65CA",
"G. c #1B6AD9",
"H. c #1F70DA",
"J. c #2572CE",
"K. c #2274D9",
"L. c #276FD1",
"P. c #1F73E6",
"I. c #2178E9",
"U. c #8C7B81",
"Y. c #778399",
"T. c #6F8095",
"R. c #5C82BB",
"E. c #7A8BA6",
"W. c #6786B7",
"Q. c #708AB3",
"!. c #2981E6",
"~. c #6B8EC4",
"^. c #888185",
"/. c #899095",
"(. c #A9AD95",
"). c #858EA3",
"_. c #8590A8",
"`. c #8995A8",
"'. c #8C9BB4",
"]. c #879AB7",
"[. c #929DB5",
"{. c #939CAD",
"}. c #95A4BB",
"|. c #98A7BE",
" X c #9EA9BE",
".X c #97A6B4",
"XX c #B9B4B9",
"oX c #AAA8AF",
"OX c #97AB89",
"+X c #C89C85",
"@X c #CAA885",
"#X c #DDAB84",
"$X c #D7A886",
"%X c #DDB08B",
"&X c #CDAD9B",
"*X c #D6B594",
"=X c #E1AC85",
"-X c #E3AF88",
";X c #E5B38C",
":X c #EABB93",
">X c #E7B993",
",X c #D7B7A4",
"<X c #CCB9B1",
"1X c #E1BFA8",
"2X c #EEC29C",
"3X c #F0C69F",
"4X c #F8F18D",
"5X c #DDC2A8",
"6X c #DAC5BB",
"7X c #E9C7A8",
"8X c #F3CBA4",
"9X c #F2CAA3",
"0X c #F5D2AC",
"qX c #E6CCB5",
"wX c #F5D6B2",
"eX c #F8D9B4",
"rX c #F7D9B6",
"tX c #EBD2BB",
"yX c #FDF5A4",
"uX c #F9EFA4",
"iX c #D1D48B",
"pX c #8BA4C8",
"aX c #98ABC7",
"sX c #A5B1C6",
"dX c #A9B6CA",
"fX c #A8B4C8",
"gX c #B3BFD2",
"hX c #A8B4C9",
"jX c #B6C2D4",
"kX c #B8C3D5",
"lX c #BDC8DA",
"zX c #B3C2D8",
"xX c #C0CBDC",
"cX c #C7CBD5",
"vX c #D9D6D3",
"bX c #ECDBC8",
"nX c #F5E3CD",
/* pixels */
"xX Xv.v.sXlXlX Xv.v. XjX|.'.'.'.'.'.'.'.].'.'.'.'.aXgXlXxXaXv.B Y Q  XlXxXgX X'.'.'.'.}.gX Xv.S S v. XxXxXgX X'.'.'.'.'.'.'.'.'.",
"gX XB.M.`. X X_.R v. XgX|.'.'.'.'.'.'.'.'.'.].[.}.sXjXjXsX{.M.v.v.M.'.sXkXgX}.'.].[.}.|. X[.M.v.v.M.[.sXkXgXsX}.'.'.'.'.].'.'.'.",
"|.|. X'.M.v.v.R Y v. XgX|.'.'.'.'.].'.'.'.].'.[.fXkXlXsXV.M.{. X X{.M.V.sXgX}.[.'.}.sX XB.M.'. X X[.M.V.sXlXkXsX}.].'.'.].'.'.].",
"'.}.fX XB.R Y S S v. XjX|.'.'.'.'.'.'.'.'.[.aXsXjXkXsX'.M.V.sXxXxXsXV.M.'. X|.|.}. X X[.M.V.sXxXlXsXV.M.[.sXkXgXsX}.[.].'.].[.'.",
"'.'.}.aX|._.R S S v. XgX|.].'.'.'.'.'.].'.}.gXgXlXsXV.M.{.sXkXxXxXgXsX[.M.V. XgXgX XB.M.[.sXkXxXlXkXsX[.M.V.sXlXgXdX[.[.'.'.'.'.",
"'.'.'.}.dX XB.R Y v. XgX|.'.'.'.'.'.].[.}.sXgXgXsX{.M.V.sXlXgXgXgXgXlXsXV.M.`. X X_.M.V.sXxXgXgXgXkXlXsXV.M.[.sXlXgXsXaX[.'.'.'.",
"'.'.'.[.}.|. X_.R v. XjX|.'.'.'.].[.].}.dXgXlXsXV.M.'.sXgXkXsXaX XsXgXlXsX[.M.v.v.M.{.sXkXgXaXaX XsXgXlXsX[.M.V.hXlXgXdX}.'.'.'.",
"'.'.'.'.'.|.jX Xv.v.|.jX|.'.].'.].[.}.sXlXgXsX[.M.V.sXlXgXdX}.'.'.}.fXgXlX Xv.Y v.V.sXlXkXfX}.].'.[.dXgXlXsXB.M.'.hXgXgXsX}.'.'.",
"'.'.'.'.'.|.gX Xv.v. XgX|.'.'.'.'.|.hXgXxXdXV.M.'.sXlXzXpX}.pXW.A.A.~.pXaXaXV.v._.fXkXgXsX[.[.[.'.'.}.sXgXgXdX[.M.V.hXlXgXgX}.[.",
"'.].'.'.'.|.gX Xv.v. XgX|.'.'.[.|.hXgXgXsX[.N.V.sXzXaXpXZ.c.h.h.b.b.h.l.A.S.~.S.fXlXkXdX[.].].[.'.'.].}.dXgXxXdXV.M.`.sXgXgXaX|.",
"'.'.'.'.'.|.gX Xv.v. XgX|.'.'.}.dXgXxXsXV.N. XhXW.Z.l.l.W -.(.(.q.X.$.$.#.f.g.z.S.~.gX[.].].].[.'.'.].[. XsXgXgXsX`.M.B.sXlXgXgX",
"|.|.|.|.|.sXkX Xv.R _. X|.|.aXsXgXgXsX[.V.pXz.l.l.l.j.p.| 8.4XuXiX+.o.o...B u.w.f.f.f.z.].].[.[.].'.'.'.'.}.dXgXxX Xv.v._.sXlXxX",
"jXjXjXgXgXjXlX Xv.Y R B.|.gXgXjXlXsX_.E.Z.g.g.g.i.y.M M U 8.4XuX9.+.o.o...4 s v w.s.s.f.f.S.Q.aX'.'.].'.'.[.}.sXgX Xv.Y v.U.hXxX",
"lXlXlXlXxXkXsX_.R S S R _. X X X XsXA.h.i.f.f.w.n z f y 0 8.yXyX9.@.+.+...: ; ; i z v w.s.w.f.U.}.'.'.'.'.'.].}.gX Xv.S B R _.aX",
"xXxXlXxXxXsXV.R Y S S Y R v.v.v._.S.m m w.M v l i t u ; j 7.4XyX4X@.+.+. .o : : : u u i i z z M [.aX'.'.'.'.[.|.gX Xv.S S S v.v.",
" X X X X X_.R S S Y R v.v.v.v.v.C.F x x x l i i i s s s l | iXyX9.@.+.o.8 : ; ; ; ; ; u y i i i F E.'.'.].[.}.sXgX Xv.S v.v.v.v.",
"v.v.v.v.v.R S S S R _. X X X|. XE.b l l d l x N C C m C n Z H -.0.@.r 8 p p s p y t u u u t t y h N.[.'.'.[.dXgXxXsXv.R ).sX X X",
"v.R Y S S S S Y R Y.sXlXjXjXjXjXaXA f d d N r.i.i.a.i.i.r.C C a 8 8 a a g c b n x l s y t t u y B _.[.aXaXsXgXlXsX`.M.V.sXxXxXlX",
" X_.R S S S S R _.sXjXjXsX}.|.sXgXD.f d g C C Z F A D D H V k < o o o o = = ; > p p t u y u y y V.gXgXgXgXgXxXsXV.M.[.sXkXxXxXxX",
"xXfXY.R Y Y R Y.sXlXjXdX}.'.'.}.fX.Xf h 8 = o o @ , 2 V V k k , > > , ; - = o $ . . X o # 1 > B dXxXxXxXxXkXsX`.M.V.sXlXgXgXgXgX",
"xXkXsX).R R _.hXjXjXsX}.}.'.'.'.|.hXN.k * o > a h b B A D A k a a a a p a > p u p ; : o $ 5 j ).fXxXcXxXxXsXV.M.'.hXlXgXsX|.|.|.",
"gXkXxX Xv.v.aXlXjXdX}.'.].'.'.'.'.|./.6 < - = - % 4 2 L K J 2 < @ O             X X X . = - Q B.{. X XaXaX{.M.V.sXlXgXdX[.[.'.[.",
"|.sXkX Xv.v. XkXsX}.'.'.'.'.].'.'.'.Y.3 + # % @ - 3 8 J K J 2 < @ O .               O o O @ Q {.M.v.v.v.v.M.{.sXgXgXsX[.[.'.'.'.",
"'.|.gX Xv.v. XgX|.'.].'.'.'.'.'.'.'.T.8 + # ) q % < 2 J K J 2 < @ O .         X $ < w 1 O % Q sXV.R Y Y R B.sXlXgXdX}.'.].].'.'.",
"'.|.gX Xv.v. XgX|.'.'.'.].'.'.'.'.'.Y.J # P ;X#X7 $ O + < 6 6 1 1 * * * % + + $ % ] -X2.+ + U.gXfX).R R _.sXkXjXdX}.[.'.'.'.'.'.",
"'.|.gX Xv.v. XgX|.'.'.'.'.'.'.'.'.'.Y.J # %.>X>X6 6 9 e q ( ( ( ( ( ( ( w q q 7 1 =.:X;X< + /.gXxX Xv.v. XxXxXgXaX[.'.'.'.'.'.'.",
"'.|.gX Xv.v. XgXaX'.'.'.'.'.].'.].'.{.Q @ *.>X2X*X%X%X$X-X#X#X6.6.6.6.$X$X$X@X%X*X:X:X;X7 - /.sXjX Xv.v. XxXxXgX}.'.'.'.'.'.'.'.",
"'.|.gX Xv.v. XjXsX}.[.'.'.'.'.'.'.'.XX=.@ 2.>X2XqX&.K 5 &.7XwXwX0XwXwX0X&X) P 7 ,X9X:X;X9 9 (.aXgX Xv.v. XxXxXgX|.'.'.'.'.'.'.].",
"'.|.gX Xv.v. XlXgXhX}.'.'.'.'.'.'.'.5X=.@ 2.2X2XvX9 I & w 7XwXrXrXeXeXwX[ P L & ^.tX:X;X7 P 2.|.gX Xv.v. XxXxXgXaX'.'.'.'.'.].'.",
"'.|.gX Xv.R _.sXjXjXsX}.'.'.'.'.'.'.5X*.* <.:XtXvX& $ & ~ qXrXeXeXeXeXrX[ & $ 5 %.bX2X;X7 ) +X|.gX Xv.R _.sXkXjXsX}.'.'.'.'.'.'.",
"'.|.gXsXv.Y R V.sXxXjXfX}.'.'.'.'.'.<X2.9 <.>X7XbX=.^ ~ *XnXbXeXeXeXeXnXvX~ ^  .vXtX:X-Xw *.*X|.gX Xv.Y R V.sXlXjXhX}.].'.'.'.'.",
"|.|.|.`.M.v.v.M.'.sXkXjXsX}.'.'.'.'.oX4.] <.;X2X9XqX@X@XbXrXeXeXeXeXeX0XnX,X+X2X0X9X:X=X%.<.1XsXjX Xv.S S R _.sXjXjXsX|.'.].'.'.",
"gXaXB.M.`.sX X'.M.V.sXlXjXfX}.'.[.}.fX%X:.1.;X:X:X9X9X8X0X0X0X0X0X0XwXeXwX0X0X8X9X:X:X4.:.1.<XlXxXsXv.B B Y R U.hXlXlXhX}.[.].'.",
" X'.M.V.sXxXlXfXV.M.{.sXkXgXsX|. XsXcX1X:.:.=X:X9X9X9X9X8X0X9X:X0X8X:X9X0X0X0X9X9X9X>X3.:.4.XXgXsX'.M.v.v.v.v.M.'.hXgXgXsX}.|.}.",
"v.M.{.sXkXxXlXkXsX'.M.V.sXlXjXgXgXgXlXXX+X} 5.:X:X8X9X9X8X8X-X=X-X-X=X:X0X0X8X9X9X:X-X>.<.<XcXsXV.M.{. X XsXaX{.M.V.sXlXgXgXgXgX",
"v.V.sXxXgXgXgXgXlXsXV.M.[.sXkXxXxXgXhX[.`.1.3.-X:X9X9X9X>X=._ / ( ( ) =.@X9X9X9X:X;X=X>.6XlXsX{.M.V.sXcXxXxXcXsXV.M.'.sXlXgXhX X",
" XsXgXgXsX|.|.sXgXkXsX{.M.V.sXxXxXsXV.M.{.&X<.=X:X:X>X[ 3 3 3 < < < 1 3 3 P +X7X:X;X3.,.cXsXY.M.{.sXgXxXxXxXxXlXsX'.N.U.sXsXV.v.",
"cXlXkXdX|.].'.}.fXkXlXsXV.B.[. XsX_.R v.sXvX<.4.:X;XP % < < 1 1 < 1 1 3 < % 3 2.>X=X>.,XsX'.M.T.sXlXgXgXgXgXgXgXlX Xv.R _.[.M.v.",
"xXgXsX}.[.].'.'.}.sXgXlXsX`.M.v.v.v.Y v.|.gX,X1.=X%X_ ) ) I 5 & & & & 7 _ I ) 2.-X3.1.).v.M.{.fXkXkXsX|.aX X|.aXgX Xv.Y v.M.{. X",
"xXgXsX}.[.'.'.'.'.}.dXgXlXsXY.R S S S v.aXgX<X1.3.-X%X$X%X$X*.w q e $.2.;X%X$X;X#X1.&XY R V.sXlXgXdX[.[.[.'.'.|.gX Xv.S B v. XxX",
"xXxXkXdX}.'.'.'.'.[.}.sXzXkXsX_.R B B v. XkX X&X<.4.=X-X:X:X;X>X;X;X;X:X:X>X-X5.>.+Xv.v._.sXjXjXaX|.].'.'.'.[.|.gX Xv.S S v. XlX",
"xXxXxXgXsX}.'.'.'.'.].}.dXzXlXsXU.R Y v. XkX}.[.qX>.3.#X-X>X>X>X>X>X:X:X-X=X3.>.$XQ v.M.sXlXjXdX[.'.'.'.'.[.].|.gX Xv.S S v._. X",
"xXcXxXxXjXdXaX'.].'.'.'.}.sXzXjXhX_.v.v. XgX}.].fX&X<.1.=X;X;X;X>X;X-X=X$X1.>.+XU.R ).aXjXjXsX|.[.[.'.'.'.'.].}.gX Xv.S S Y v.v.",
"aXfXgXxXlXjXsX[.[.'.'.'.'.|.jXlXxXaXv.v. XgXsX}.[.'.oX=.} >.1.3.3.3.1.>.,.} &XXXv.v.sXlXjXdX}.'.].'.'.'.'.].[.}.gX Xv.S S S R v.",
"v.V.fXxXxXlXkXdX}.'.'.].'.}.gXxXxX Xv.v. XlXgXdX|.'.'.C.( ;.:.:.} >.>.} } Q  X Xv.v. XkXsX}.'.'.[.'.'.].'.'.'.}.kX Xv.B S v.U.aX",
"v.M.'.sXkXxXlXkXsX}.[.'.'.aXgXxXxX Xv.R _.hXxX XY.C.R D / ` ` ` ` } ` ` ` k T B.M.[.dXkX|.'.'.'.'.'.'.'.'.'.'.}.kX Xv.S v.M.hXxX",
" X{.M.V.fXlXxXlXjXdX}.'.'.|.gXxXxX XC.v.).b.v M j k M w.T ' :.;.} } } } ) w.w.k j B M b..X|..X'.'.].'.'.'.'.'. XgX Xv.v._.hXzXxX",
"gX|.B.M.'.fXkXxXxXgXsX|.|.sXkXgXsX{.[.).T s.b z h b y.k.l.[ <.1.1.1.3.,.v.k.p.b j h z s.d.`. X'.'.'.'.'.'.'.'. XgX Xv.v. XlXgXzX",
"}.aX X{.M.V.sXxXxXlXgXgXgXkXxXsXT.{.C.A n b c h n C k.G.G.x.^.5.5.5.2.&.J.G.F.r.b h c v Z F b.dX'.'.'.'.'.'.'.aXgX|.v.v. XjXsX|.",
"[.[.fXaXB.M.{.sXgXxXxXxXxXgXsX{.M.C.h d g c v Z m t.G.P.I.I.L.*.5.5.^.J.I.I.I.j.m n n c d d c T.'.'.'.].].[.}.sXjX Xv.v. XgX|.'.",
"'.[.}. X X{.M.Y.fXxXxXxXlXsXV.M.`.E s f v n s.s.u.a.P.H.j.t.L.Z.=.=.!.x.r.k.I.k.C OXOX#.D d l T }.'.'.'.'.}.dXjXlX Xv.v. XgX|.'.",
"'.'.'.[.fXaXB.M.{.aX X XaX{.M.)..XH x N r.W &.&.$.d.p.N d d i.I.Z.S.!.a.x x t.j.G 4X0.q.! m x Z ).}.].[.}.sXjXjXsX_.R v. XgX|.'.",
"].'.'.[.|.aX X`.M.v.v.v.v.M.{.fX.XH C C p.y.r.t.r.m n w.w.w.z t.F.G.l s C p.C m -.0.q.0.#.s.r.x E.|.'.}.fXjXlXfXV.R Y v. XgX|.'.",
"'.'.'.].'.}.gX Xv.S S Y R V.sXfX/.G r.N p.k.H.G.H.H.H.H.j.y.w.v x x x e.p.i.p.p.7.0.0.7. .G t.m T `.|.sXjXjXsX_.R S S v.aXgX|.'.",
"'.'.'.'.'.|.jX Xv.S Y D.).sXgXfX&.F t.e.t.p.F.P.I.I.I.H.p.f.w.w.v g m r.p.p.p.p.! 7.0.O.| u.t.m h `.jXjXlXfXY.R Y S S v. XgX|.'.",
"'.'.'.'.'.|.gX|.v.Y D.U.sXxXkX(.K Z t.e.t.r.k.k.G.F.k.k.w.w.p.w.n f n r.t.r.p.p.F W | | G w.t.m g `. X X X`.M.v.v.R Y v. XjXsX|.",
"'.'.'.'.{.aXgX Xv.v._.sXkXkXsX).D.n.n.n.A.A.Z.Z.Z.R.~.~.A.n.d.G F G n.N.S.S.W.Z.S.S.A.n.n.d.d.d.D Y.v.v.v.M.`. X X_.R v.aXlXgXgX",
"|.pX[.'.[.[.gX Xv.v. XlXgXfX}.[.].'.'.'.'.'.'.'.].}.gXxXcXaXv.Y R V.sXxXgXgXgXgXgXgXlXsXB.R Y S S S S Y R Y.fXlXkX XB.M.{.sXgXxX",
"gXfX}.'.'.aXgX Xv.v. XgXaX}.[.'.'.'.'.'.'.'.'.'.].aXgXxXxXaXv.R _.sXgXgXsX|.aX XaXsXjXjXsX_.R S S S S R _.sXjXjXsX|. X{.M.V.sXxX",
"xXkXsX}.[.[.gX Xv.v. XgX X'.'.'.'.'.'.].'.'.'.'.'.[.gXxXcX Xv.v.sXxXxXgX}.'.'.'.'.}.dXjXxXsXV.R Y Y R V.sXlXjXfX}.}.fX XV.M.{. X",
"xXlXkXfX[.sXgX Xv.v. XgX X'.'.'.'.'.'.'.'.'.'.'.'.}.gXxXxX Xv.v.aXxXlXgX|.'.'.'.'.'.}.sXkXkXsX).R R _.sXjXjXsX}.'.[.}.aX X{.M.v.",
" XsXkXkXsXsXgXaXv.v. XgX|.].'.'.'.].'.'.'.'.'.'.'.aXgXxXxX Xv.v. XxXxXgX|.'.'.'.'.'.'.}.fXgXlX Xv.v. XxXjXfX}.'.'.'.'.}.fXaXM.v.",
"v.V.sXlXgXgXlX Xv.v. XgX|.'.'.'.'.'.'.'.'.'.'.'.[.}.gXxXxX Xv.v. XxXlXjX|.'.'.'.'.'.'.'.}.sXgXsXv.v. XkXsX}.'.'.'.'.'.'.}.aX XaX",
"S v. XxXxXxXxX Xv.v.aXgX|.'.'.].'.'.'.].'.'.'.'.'.aXgXxXxX Xv.v. XxXlXgX|.'.'.'.'.'.'.'.'.aXgX Xv.v. XgXaX'.'.'.'.'.'.'.{.}.gXcX"
};
