/* XPM */
static char *result[] = {
/* columns rows colors chars-per-pixel */
"64 64 214 2 ",
"   c #010000",
".  c #0B0102",
"X  c #0C040B",
"o  c #0E0908",
"O  c #1C0306",
"+  c #120508",
"@  c #160D14",
"#  c #1C141B",
"$  c #1B1318",
"%  c #1B120E",
"&  c #230307",
"*  c #260408",
"=  c #2B0509",
"-  c #250D0D",
";  c #34060B",
":  c #3A070C",
">  c #3C080D",
",  c #35090C",
"<  c #3B1C09",
"1  c #36160E",
"2  c #21141B",
"3  c #26191A",
"4  c #2B1B1D",
"5  c #291515",
"6  c #331411",
"7  c #361913",
"8  c #3C1C12",
"9  c #36191B",
"0  c #300F10",
"q  c #35221D",
"w  c #1E1A23",
"e  c #241D23",
"r  c #2B1B23",
"t  c #2A1F29",
"y  c #311D23",
"u  c #3A1D27",
"i  c #2A232A",
"p  c #362322",
"a  c #3A2623",
"s  c #382629",
"d  c #2B2835",
"f  c #28273B",
"g  c #352B33",
"h  c #392D36",
"j  c #38333B",
"k  c #43090F",
"l  c #460C10",
"z  c #4C0D11",
"x  c #520E13",
"c  c #580F15",
"v  c #5C1116",
"b  c #571316",
"n  c #441C10",
"m  c #6B161A",
"M  c #6E181B",
"N  c #631318",
"B  c #74191C",
"V  c #781A1D",
"C  c #46240C",
"Z  c #442413",
"A  c #4B2B13",
"S  c #482818",
"D  c #53251B",
"F  c #54321A",
"G  c #5D3519",
"H  c #543218",
"J  c #633C1F",
"K  c #441D25",
"L  c #7F1D20",
"P  c #442B2B",
"I  c #472B28",
"U  c #5C2A26",
"Y  c #56342A",
"T  c #452C34",
"R  c #47363A",
"E  c #583734",
"W  c #4C302A",
"Q  c #623F21",
"!  c #67352D",
"~  c #633C38",
"^  c #72332E",
"/  c #59423C",
"(  c #654123",
")  c #6A4628",
"_  c #6D4928",
"`  c #6C4827",
"'  c #724A29",
"]  c #704727",
"[  c #76502D",
"{  c #7B552E",
"}  c #6A443A",
"|  c #724938",
" . c #774537",
".. c #7B5536",
"X. c #3A3946",
"o. c #303248",
"O. c #453D45",
"+. c #543640",
"@. c #3D404A",
"#. c #3A4466",
"$. c #4A4545",
"%. c #4B444B",
"&. c #534A4D",
"*. c #57464B",
"=. c #494A58",
"-. c #544E57",
";. c #5C5355",
":. c #5C5459",
">. c #5F585C",
",. c #6B4544",
"<. c #784C47",
"1. c #645759",
"2. c #7A594E",
"3. c #424C6D",
"4. c #464B62",
"5. c #4E5469",
"6. c #5A5968",
"7. c #535D7C",
"8. c #555B72",
"9. c #524F62",
"0. c #645C62",
"q. c #655B65",
"w. c #775E69",
"e. c #5B6478",
"r. c #6C6364",
"t. c #6B6469",
"y. c #74696A",
"u. c #676878",
"i. c #756D71",
"p. c #7A7274",
"a. c #7D757B",
"s. c #7E787C",
"d. c #811D1F",
"f. c #831E21",
"g. c #8A2122",
"h. c #942425",
"j. c #992627",
"k. c #9E2828",
"l. c #9D2728",
"z. c #8A3B33",
"x. c #A12929",
"c. c #825B31",
"v. c #88513E",
"b. c #8E473A",
"n. c #A4473C",
"m. c #8C6333",
"M. c #9A6F37",
"N. c #966C37",
"B. c #9C723B",
"V. c #84554C",
"C. c #8B5A54",
"Z. c #955A4E",
"A. c #AE5646",
"S. c #9C664D",
"D. c #9C6C56",
"F. c #866B5E",
"G. c #A27A43",
"H. c #AF6E55",
"J. c #847878",
"K. c #8C7268",
"L. c #946E6B",
"P. c #C17356",
"I. c #C57C6A",
"U. c #A7824C",
"Y. c #BD8363",
"T. c #AC8A76",
"R. c #DB936C",
"E. c #CF8868",
"W. c #E39B72",
"Q. c #EAA377",
"!. c #5B6683",
"~. c #6C6E80",
"^. c #6D7489",
"/. c #76788A",
"(. c #6C7792",
"). c #737D96",
"_. c #757F9A",
"`. c #847C82",
"'. c #7B8396",
"]. c #7F8AA0",
"[. c #8B8285",
"{. c #858A9B",
"}. c #9C9294",
"|. c #948E92",
" X c #A29796",
".X c #828EA4",
"XX c #8591A9",
"oX c #8B94A9",
"OX c #9499AA",
"+X c #8C9BB4",
"@X c #929EB3",
"#X c #95A4BB",
"$X c #98A7BE",
"%X c #9EA9BE",
"&X c #99A1B4",
"*X c #A8ACB8",
"=X c #EDB38F",
"-X c #E2AB90",
";X c #F6C8AA",
":X c #FDD4B6",
">X c #A5B1C6",
",X c #A9B6CA",
"<X c #AAB4C5",
"1X c #B3BDCE",
"2X c #B3BFD2",
"3X c #A4AEC1",
"4X c #9EABC0",
"5X c #B6C2D4",
"6X c #B8C3D5",
"7X c #BDC8DA",
"8X c #C0CBDC",
"9X c #CFD1D7",
"0X c #FADCC8",
"qX c #F4F3F4",
/* pixels */
"8X%X!.!.4X8X8X%X!.!.%X2X$X+X+X+X+X+X+X+X+X+X+X+X+X$X2X8X8X@X~.#.#.!.%X8X8X2X$X+X+X+X+X$X2X4X!.#.#.!.%X8X7X2X%X+X+X+X+X+X+X+X+X+X",
"2X%X).(.+X$X%XXX7.!.4X2X$X+X+X+X+X+X+X+X+X+X+X+X$X>X5X2Xq.T T U K 9.+X,X6X2X$X+X+X+X#X%X%X+X(.!.!.(.OX>X6X6X>X#X+X+X+X+X+X+X+X+X",
"$X$X%X+X(.!.!.7.3.!.4X2X$X+X+X+X+X+X+X+X+X+X+Xq.q.q.i.L.K k c L x +.,.+.q.6.(.+X+X#X,X4X).(.+X%X%X+X(._.>X7X2X,X#X+X+X+X+X+X+X+X",
"+X#X,X%X).!.#.#.#.!.%X2X$X+X+X+X+X+X+X+X_.~.~.r & * : x x v B h.B m N c k > +.`.^.OX4X+X(._.>X7X8X>X_.(.+X>X7X2X>X#X+X+X+X+X+X+X",
"+X+X#X$X4XXX7.#.#.!.%X2X$X+X+X+X+X+X]..X-.& & & * O * l v L f.x.f.B B f.f.V c l * /.(._.+X>X2X8X8X6X>X+X(._.>X7X5X,X#X+X+X+X+X+X",
"+X+X+X#X,X%X).7.3.!.4X2X$X+X+X+X+X].g r 9 l c L c ; * c L f.x.x.f.f.f.l.l.f.L V v 9 O._.>X8X6X2X2X2X7X>X_.(.OX>X5X5X>X#X+X+X+X+X",
"+X+X+X+X#X%X%X].!.!.4X2X$X+X+X+X+XXXu.u * ; x N M M L L m f.x.x.h.h.l.l.f.N x l N k P u.2X2X>X$X%X>X2X7X>X@X(._.,X7X5X,X#X+X+X+X",
"+X+X+X+X+X$X5X%X!.!.$X2X$X+X+X+X+X+X@XO.* : v L f.j.j.f.M L l.f.f.h.l.h.c N c c m c : +.6X,X#X+X+X#X,X2X7X>X_.(.+X>X5X5X>X$X+X+X",
"+X+X+X+X+X$X2X4X!.!.4X1X$X+X+X+X+X@XOXT > N f.l.j.j.k.x.f.f.h.M l.x.l.f.z m f.l.f.B z T oX@X@X+X+X+X#X>X5X5X>X+X(._.>X7X2X,X#X+X",
"+X+X+X+X+X$X2X%X!.!.4X2X$X+X+X+X#XoXr > N f.x.f.B B f.k.k.x.x.x.x.x.x.h.x c B f.x.g.N > 5 '.+X+X+X+X+X#X,X2X7X,X_.(.+X>X6X5X>X$X",
"+X+X+X+X+X$X2X4X!.!.$X2X$X+X+X#X`.O.> N L L L k x B h.g.f.j.x.x.h.L f.l.L c x v M L B x > h ~.+X+X+X+X+X$X>X5X5X>X+X(.(.>X7X5X2X",
"$X$X$X$X$X>X2X%X!.7..X4X$X$X$X>X`.: x V L N : ; N f.f.B v B j.x.h.B N f.f.L z > x L m x z l +.~.+X+X+X+X+X#X,X2X7X%X!.!.XX>X5X8X",
"2X2X2X2X2X2X8X4X!.#.!.(.%X2X2X@Xw.x c v v l = z B B x x > c f.x.l.m z c f.f.v = : N c z x m k T (.+X+X+X+X#X#X>X2X$X!.#.!.(.>X7X",
"7X8X8X8X8X2X,XXX!.#.#.!.XX4X>X+.: v k ; & = z B v ; & & z B g.x.x.B > * c L N k & : k : * m v : t XX+X+X+X+X+X#X2X#X!.#.#.!.`.%X",
"8X7X8X8X7X>X(.!.#.#.#.#.!.!.!.h = k = : > l v c : = k x x m h.m h.L x k = x M m > = * = > ; z l t XX+X+X+X+X+X$X2X$X!.#.#.!.!.!.",
"4X%X%X4X#X].!.#.#.3.7.!.!.!.!.5.h = = z k ; z ; ; l x > z m f.x h.f.N k z > x m k = O = k * > > u XX+X+X+X+X#X>X5X%X!.#.!.!.!.!.",
"!.!.!.!.!.7.#.#.#.!.].$X$X4X4X$XO.X + = > = : = l z l = c B N : L g.m > v l : z x = = = ; = ; u 9.XX+X+X+X#X,X5X7X%X!.!.`.>X$X>X",
"!.!.3.#.#.#.#.3.!._.>X5X6X2X2X>Xg       - , * k x l & k m B x & m g.v * v x : = x , , l 7 + O :.>X#X$X$X%X>X5X5X>X+X(.`.,X8X8X8X",
"$XXX!.#.#.#.#.!.XX>X5X5X>X$X$X>Xu..       O , > = & & k c c > O m B z * v N c > * : k U q   X -.5X2X2X2X2X2X7X>X_.(.+X>X5X8X8X8X",
"7X>X).7.3.#.!.).>X7X5X,X#X+X+X#X/.2           . O ; ; = k k = O v b > & l x x > O O - o     X -.6X8X8X8X8X6X>XOX(._.>X7X5X2X2X2X",
"8X5X>XXX!.7.`.,X5X5X>X#X+X+X+X+X~.W Y               + . . . . . O + . + . .                 % O.>X8X8X8X8X>X_.(.+X,X5X2X>X$X$X$X",
"2X5X7X%X!.!.$X7X5X,X#X+X+X+X+X+X^.&.D.Y o                                                 % / =.+X%X%X#X%X+X(._.>X7X5X,X#X+X+X+X",
"$X>X5X%X!.!.4X5X>X#X+X+X+X+X+X+X+X.Xs r }  .+ %                                   o o 4 4 3 /.+X(.!.!.!.!.(.+X>X5X5X>X#X+X+X+X+X",
"+X$X2X%X!.!.4X2X$X+X+X+X+X+X+X+X+XoX{.{.*XF.z.Y...7 . .         .   . + . + 5 ..S.v.^ [.8X&X1X>X_.!.3.3.!.(.>X7X5X,X#X+X+X+X+X+X",
"+X$X2X%X!.!.4X2X$X+X+X+X+X+X+X+X+X+X+X+XoXqXU P.W.H.0 v.b , , O ; : : = ; : v.W.R.^  XqX7X>X5X6X>XXX!.!.XX,X5X5X>X#X+X+X+X+X+X+X",
"+X$X2X%X!.!.4X2X$X+X+X+X+X+X+X+X+XXX!.e.u.9X&.Z.E.H. .R.S.U ; = k > n ! ^ b.H.R.P.I qX9Xe.~.@X5X7X+X!.!.$X8X8X2X#X+X+X+X+X+X+X+X",
"+X$X2X%X!.!.$X2X$X+X+X+X+X+X+X+XXX^.# @ X . + ^ A.E.W.Q.Q.S.q b l 6  .Q.Q.R.E.P.z.6 *XX @ X 6.#X2X$X!.!.$X8X8X2X$X+X+X+X+X+X+X+X",
"+X$X2X%X!.!.4X5X>X$X+X+X+X+X+X+Xe.i 1.j y 6 Z 8 ^ n.A.W.Q.W.R.R.D v.R.Q.Q.P.n.z.n Z < P y.i # =.5X$X!.!.>X8X8X2X$X+X+X+X+X+X+X+X",
"+X$X2X%X!.!.>X8X5X,X#X+X+X+X+X7.j / i.p.$.Z ) Q G b U H.E.Y.Y.Y.Z.S.Y.Y.I. .D D Z A 8 W J.i.O.j 3.#X!.!.$X8X8X2X$X+X+X+X+X+X+X+X",
"+X$X2X%X!.!.`.>X5X5X>X#X+X+X+XO.d s.p.}.1.S c.{ Q F F } | | | | | | | |  .D < n S G S T /. Xi.g t #X!.!.XX$X7X5X>X#X+X+X+X+X+X+X",
"+X$X2X%X!.#.!._.,X7X2X,X$X+X(.o.$.}.s.}.2.S M.c.{ { { S 7 7 7 7 1 7 7 7 7 Z A A F _ F T J.}.J.O.t /.!.#.!.(.>X7X5X,X#X+X+X+X+X+X",
"$X$X%X+X(.!.!.(.+X>X5X5X>X+Xw o.>.p.[.`.&.F B.M.M.M.N.{ G A A A A A A A A A A F ' [ F E `.`.`.w.g + #.#.#.!.XX,X5X5X>X#X+X+X+X+X",
"2X%X).(.+X4X$X+X(.'.>X7X5X4Xw $.1.;.}.i.R A M.G.U.G.N.N.{ _ ( A A A A A A Q ` _ [ [ F E }.t.p.t.d X #.#.#.5.7.'.4X7X5X,X#X+X+X+X",
"%X+X(._.>X8X8X>X_.(.+X>X5X,Xw / 0.1.r.;.R q m.B.G.U.G.B.N.{ [ ( Q Q Q Q Q _ { c.[ ) S s r.;.r.r.O.. 5.!.!.!.!.'.+X>X5X5X>X#X$X$X",
"~.(.+X>X6X8X7X5X>X+X(.'.#X'.j j >.y.O.*.W Z [ N.G.U.U.G.M.m.{ { { c.c.c.c.{ m.m.[ F 8 9 g 1.;.>.0.# 9..X%X%X$XoX(.'.>X5X5X5X5X5X",
"!.).>X7X6X2X2X5X7X>X'.(.u.o ;.&.;.a.%.$.h Z [ m.N.B.U.U.G.B.M.M.M.M.M.M.M.N.c.[ _ H 8 - # r.&.;.p.j @ t.7X7X7X5X'.(.+X>X5X5X>X$X",
"%X>X2X2X>X$X$X>X5X6X>X+X5.X O.y.y.-.&.i % 7 H [ { m.B.B.U.U.U.M.M.M.M.M.{ { { _ H C < - X $.:.>.-.&.$ e.7X7X7X6X>X+X(.).>X,X'.!.",
"7X7X2X,X$X+X+X$X,X5X7X>X8.X g p.s.O.e X.$.< C H ( { { { B.G.B.N.M.N.{ { { Q G H A C < P u.i :.i.0.y.i 6.5X5X5X6X7X$X!.!.].+X(.!.",
"8X2X>X$X+X+X+X+X#X>X6X6X'.. &.[.`.%.X =.t.4 W A H ` ` [ ..m.m.m.m.{ _ Q Q H A C C I q h 7.# &.p.p.p.e 5.$X$X$X%X2X4X!.#.!.(.+X$X",
"8X2X>X$X+X+X+X+X+X#X,X5X.X@ J.[.a.>.X X.>.q @.W < < A ` _ _ _ _ _ _ Q A A A Z A A O.h i #.@ X.i.T.e.e =.+X+X+X$X2X%X!.#.#.!.4X8X",
"8X8X6X,X$X+X+X+X+X+X#X>X].@ [.|.i.1.o 3 $ @ o.%.=.R C < C A A A A H A A C < W =.=.X.# o 4 X ;.J.y.J.i 4.+X+X+X$X2X%X!.#.#.!.%X8X",
"8X8X8X2X>X#X+X+X+X+X+X#X).X i i e a D.E $ X w j =.=./ @./ $.$.$.$.$.$.$.$.$.$.=.@.i @ @ y D./ e # r 2 6.+X+X+X$X2X%X!.#.#.7.XX%X",
"8X8X8X8X6X,X#X+X+X+X+X+X(.# | y.J.L.=XC.9 X w i j X.@.@.@.@.@.@.@.@.@.@.@.@.X.X.i # @ 5 ^ -XT.K.J.2.s 6.+X+X+X$X2X%X!.#.#.3.7.!.",
"%X>X2X8X8X2X>X#X#X+X+X+X^.y E.;X0X:X:XE.! X 2 # i d d d d d d d d d d d d d d i # 2 5 U H.;X:X0X0XW.E 8.+X+X+X$X2X%X!.#.#.3.7.!.",
"!._.>X8X8X8X2X,X#X+X+X+X^.9 H.-X:X:X:X=X<.+ 6 0 - - 2 2 2 2 2 2 w # 3 $ 3 # 2 2 5 0 0 ! =X;X:X:X;XE.E 6.+X+X+X$X2X%X!.#.#.7.XX%X",
"!.(.+X>X6X8X8X6X>X#X+X+X^.u V.-X:X:X:X:XF.o 6 C C n < < < < < < < < < < < < < C Z 7 6 ,.;X:X:X:X=XA.I 6.+X+X+X$X2X%X!.#.7._.>X8X",
"4XoX(._.,X8X8X7X2X1X@X+X.Xu.~ H.=X:X=XR. .* 6 Z A A G G G G G G G G G G G G H C A 7 0 Y E.=X;X;XE.U q._.+X+X+X$X2X%X!.7.XX<X2X8X",
"2X4X).(.+X>X6X8X8X2X>X$X%X4Xu.2.L.T.D.^ D 1 1 q Z H Q ] ] ' ] ] _ ' ' ' ] ( G C Z 6 6 n ^ S.L.H.C.-.'.+X+X+X+X$X2X%X!.~.%X8X2X2X",
"$X%X%X+X(._.>X8X8X7X2X2X2X2X8Xu.d g h T 9 0 9 1 8 C A ) ) ) ) ) ) ) ) ) ) H Z C 6 7 6 9 T h h o.=.+X+X+X+X+X+X$X2X$X!.!.$X2X>X#X",
"+X#X>X%X).(.+X>X2X8X8X8X8X2X,XoX^.).4X2Xu.# &.9 6 6 6 7 6 6 7 7 6 6 7 7 7 6 0 0 6 j i j @XXXoXXX].+X+X+X+X+X$X>X6X4X!.!.%X2X$X+X",
"+X+X#X%X%X+X(._.>X7X8X8X8X>X_.(.+X>X6X7Xu.e y.:.y.1.h 1.R *.1.j 1.R R r.R ;.1.*.r.R # X.$X+X+X+X+X+X+X+X+X#X,X6X7X%X!.!.%X2X$X+X",
"+X+X+X#X,X%X_.(.OX4X4X4X%XOX(._.>X7X5X2Xt.5 O.-.p.y.&.p.:.1.y.$.r.1.;.p.&.1.q.0.p.d o./.>X#X+X+X+X+X+X+X#X>X2X6X>XXX!.!.%X2X$X+X",
"+X+X+X+X#X$X$X+X(.!.!.!.!.(.oX>X6X5X>X$Xa.P @ g R ;.r.;.r.0.>.;.1.0.r.>.:.1.&.$.&.3 6.7X6X,X#X+X+X+X+X#X,X5X7X>X_.!.3.!.%X2X$X+X",
"+X+X+X+X+X$X2X%X!.#.#.3.!._.>X7X2X,X#X+X+X).3 o . h s.j t.t.&.p.R 0.y.$.p.-.i X . , 1.%X6X2X>X$X$X$X$X>X5X5X>XXX!.#.#.!.4X2X$X+X",
"+X+X+X+X+X$X2X%X!.#.#.7.XX,X2X2X>X#X+X+Xu.h a 4 2 r h r s r @ $ X @ w i s u r 2 4 9 s =.>X7X2X2X5X5X2X6X7X>X_.7.#.#.#.!.%X2X$X+X",
"+X+X+X+X+X$X2X4X!.#.!._.>X8X2X,X@X+X+Xu.O.p a 4 p P I I i d o.f o.o.j r a I P P 3 q q h :.@X%X%X$X$X$X4X4X+X(.!.!.!.3.!.4X2X>X$X",
"+X+X+X+X+X$X2X%X!.!.XX>X2X6X>X$X+X+X+X=.r a a q Y ~ ~ E u 9.!.#.#.7.~.r W ~ ~ ~ q a I a i 8.!.!.!.!.!.!.!.(.+X$X#X.X7.!.%X7X2X2X",
"#X#X+X+X+X$X2X%X!.!.%X7X2X,X#X+X+X+X+X@.y a q E <.V.V.Y y 9.!.#.7.).`.r W ,.V.V.E I q a t 5.3.#.#.#.#.#.!._.,X7X2X$X).(.oX>X7X8X",
"2X,X#X+X+X$X2X%X!.!.%X2X>X#X+X+X+X+X+X%.3 3 3 } C.C.<.4 4 6.!.7.].>X.Xr r ~ C.C.<.a 5 3 i ).7.#.#.#.#.!..X>X5X5X>X$X4X+X(._.>X8X",
"8X5X>X$X+X$X2X%X!.!.%X1X$X+X+X+X+X+X+XX.3 4 W <.C.C.<.4 4 6.!.~.%X8XoX5 2 ~ C.C.V.E q 5 s @X_.7.3.#.!._.,X2X5X,X#X#X,X4X_.(.OX%X",
"8X8X2X,X#X$X2X%X!.!.%X2X$X+X+X+X+X+X+Xu.O.y W } V.<.E y 4 6.!.!.4X8X|.4 4 W ,.V.<.Y u g ~.<X>XXX!.7..X>X5X5X>X#X+X+X#X%X$X+X(.!.",
"$X,X7X2X>X,X2X4X!.!.%X2X$X+X+X+X+X+X+X+Xu.j a I E E 3 p O.~.!.!.4X7X&XO.a 4 P } T u h 6.<X2X7X%X!.!.%X2X5X,X#X+X+X+X+X#X,X%X).!.",
"!._.>X7X2X2X7X%X!.!.%X2X$X+X+X+X+X+X+X+X+X).4 r r r r r |.4X!.!.4X8X8X>Xh 4 r r t r 8.+X$X>X2X>X!.!.%X2X>X#X+X+X+X+X+X+X#X%X%X%X",
"#.!.4X8X8X8X8X%X!.!.%X2X$X+X+X+X+X+X+X+X+XXX).).'.{.@X&X2X4X!.!.4X8X7X1X.X)._._._.`.XX+X+X#X2X%X!.!.3X2X4X+X+X+X+X+X+X+X+X#X2X7X"
};
