/* XPM */
static char *result[] = {
/* columns rows colors chars-per-pixel */
"64 64 221 2 ",
"   c #030103",
".  c #0C050C",
"X  c #0D090C",
"o  c #18060B",
"O  c #140C13",
"+  c #1B0E12",
"@  c #1C161A",
"#  c #26060A",
"$  c #3D090E",
"%  c #34070C",
"&  c #380C12",
"*  c #2C1215",
"=  c #251519",
"-  c #25191C",
";  c #2B1C1C",
":  c #271417",
">  c #331311",
",  c #3C1C12",
"<  c #37191B",
"1  c #31150F",
"2  c #32211E",
"3  c #241C23",
"4  c #2C1B21",
"5  c #231B27",
"6  c #321D21",
"7  c #2B252A",
"8  c #342224",
"9  c #3A2524",
"0  c #3E2925",
"q  c #33242C",
"w  c #292431",
"e  c #2C2833",
"r  c #352B33",
"t  c #3D343C",
"y  c #3C3A3C",
"u  c #353338",
"i  c #43090E",
"p  c #4C0C11",
"a  c #470C11",
"s  c #540E14",
"d  c #49151A",
"f  c #5C1116",
"g  c #57161A",
"h  c #4A1A09",
"j  c #651418",
"k  c #6A1519",
"l  c #691417",
"z  c #74191C",
"x  c #7D1C1E",
"c  c #73171A",
"v  c #44230A",
"b  c #4A270C",
"n  c #4C2B18",
"m  c #502F1D",
"M  c #502F16",
"N  c #55331A",
"B  c #4D301B",
"V  c #591E24",
"C  c #432B2A",
"Z  c #482B2A",
"A  c #552A2C",
"S  c #4B312C",
"D  c #46302F",
"F  c #593521",
"G  c #59342A",
"H  c #4B3334",
"J  c #473238",
"K  c #523532",
"L  c #583937",
"P  c #532B32",
"I  c #663724",
"U  c #653C37",
"Y  c #6F312B",
"T  c #641B20",
"R  c #6C4828",
"E  c #714C2A",
"W  c #7A552E",
"Q  c #76502D",
"!  c #6A443B",
"~  c #795430",
"^  c #704133",
"/  c #5E4E3E",
"(  c #3A3A45",
")  c #443C42",
"_  c #473D45",
"`  c #4A3F4A",
"'  c #3A4466",
"]  c #3F414F",
"[  c #4C444C",
"{  c #484649",
"}  c #55474A",
"|  c #494856",
" . c #544B51",
".. c #514D5D",
"X. c #5A4C57",
"o. c #595459",
"O. c #744B44",
"+. c #7F514B",
"@. c #645A5C",
"#. c #685A57",
"$. c #705655",
"%. c #424C6D",
"&. c #484D60",
"*. c #5C5D6D",
"=. c #5A5462",
"-. c #535D7C",
";. c #565A73",
":. c #4E5162",
">. c #655C63",
",. c #635864",
"<. c #6F5A6A",
"1. c #6B6B6B",
"2. c #686367",
"3. c #756969",
"4. c #676878",
"5. c #746D78",
"6. c #787376",
"7. c #6F7678",
"8. c #6A6165",
"9. c #891719",
"0. c #821E20",
"q. c #8B2123",
"w. c #8C2729",
"e. c #942425",
"r. c #A12A2A",
"t. c #845D31",
"y. c #855C2F",
"u. c #8A6235",
"i. c #966B36",
"p. c #9A6F37",
"a. c #916734",
"s. c #9D733B",
"d. c #83534E",
"f. c #8C5947",
"g. c #915C57",
"h. c #8D5550",
"j. c #AE544A",
"k. c #85665A",
"l. c #946953",
"z. c #A37B45",
"x. c #B86453",
"c. c #82787A",
"v. c #906A67",
"b. c #AE7270",
"n. c #C7755A",
"m. c #A6814D",
"M. c #AE8671",
"N. c #848A7A",
"B. c #D8946E",
"V. c #DA9A74",
"C. c #CA886E",
"Z. c #EAA377",
"A. c #E29D76",
"S. c #5B6683",
"D. c #6C7488",
"F. c #777989",
"G. c #6C7792",
"H. c #717C96",
"J. c #757F9A",
"K. c #787F90",
"L. c #696F85",
"P. c #857E81",
"I. c #7C869B",
"U. c #7A8582",
"Y. c #7D8BA2",
"T. c #898588",
"R. c #858797",
"E. c #959394",
"W. c #8C9189",
"Q. c #AE918E",
"!. c #98A793",
"~. c #838EA4",
"^. c #8590A8",
"/. c #8B96AC",
"(. c #8C91A4",
"). c #959AAA",
"_. c #8B9BB4",
"`. c #979FB3",
"'. c #95A4BB",
"]. c #98A7BE",
"[. c #9EA9BE",
"{. c #9BA3B5",
"}. c #ABAAAA",
"|. c #A5ACBD",
" X c #B4B4B4",
".X c #BCBCBC",
"XX c #C28884",
"oX c #D2AA98",
"OX c #EBAC85",
"+X c #EBB596",
"@X c #CAB2B0",
"#X c #E6BDA7",
"$X c #FCD3B5",
"%X c #FDD7BA",
"&X c #F1C7A9",
"*X c #EAC0A6",
"=X c #A5B1C6",
"-X c #A9B6CA",
";X c #ADB4C4",
":X c #B3BCCD",
">X c #B3BFD2",
",X c #A4AEC2",
"<X c #B6C2D4",
"1X c #B8C3D5",
"2X c #BDC8DA",
"3X c #C4C4C4",
"4X c #CBCBCB",
"5X c #CFC8C6",
"6X c #D8CBCB",
"7X c #C0CBDC",
"8X c #D4D4D4",
"9X c #DCDCDC",
"0X c #E2DCDB",
"qX c #E3D6D7",
"wX c #EED6C7",
"eX c #ECE2DD",
"rX c #E4E4E4",
"tX c #ECECEC",
"yX c #EDE7E7",
"uX c #F2EDEB",
"iX c #F2F2F2",
/* pixels */
"7X[.S.S.[.7X7X[.S.S.[.>X]._._._._._._._._._._._._.[.>X7X7X,XS.' ' S.,X2X7XL.R._._._._.].>X,XS.' ' S.[.7X7X>X]._._._._._._._._._.",
">X[.H.G./.[.[.^.-.S.[.>X]._._._._._._._._._._._./.4.F.F.{.).G.S.S.G._.=X>XP ` H._._.].].]._.G.S.S.G./.=X1X<X=X'._._._._._._._._.",
"].].[._.G.S.S.-.%.S.,X>X]._._._._._._._._._._./.5.# % # X.;.L.(.[./.G.<.R.P % =._.].-X[.H.G./.,X[._.G.J.=X2X<X-X'._._._._._._._.",
"_.'.-X[.H.-.%.' ' S.[.>X]._._._._._._._._._.].G.% i j p i % # ,.:X{.S.# # s i ,._.].[._.G.J.=X7X7X=XJ.G._.=X<X<X=X'._._._._._._.",
"_._.].].[.^.-.' ' S.].>X]._._._._._._._._.'.-X;XR.% j j j p i & * * * i i f z s ,.[.H.G._.-X>X7X7X1X=X_.G.J.=X2X<X-X'._._._._._.",
"_._._.].-X[.H.-.%.S.[.>X]._._._._._._._.'.=XP.) q # p z l f p i % # i f c l k k V X.G.J.=X7X>X>X>X>X7X=XJ.G._.-X<X<X=X'._._._._.",
"_._._._.'.].[.^.S.S.[.<X]._._._._._._.'.L.=._ $ p p l c z k j s p % p z 0.k z x k d ` $.<.;X,X].[.=X>X2X=X/.G.J.-X2X<X-X'._._._.",
"_._._._._.].<X].S.S.].>X]._._._._._.'.D.P $ p k x 0.0.x 0.x k k k p p z x z x x k p a j p ).'._._.'.-X>X2X=XP.H._.=X<X<X=X]._._.",
"_._._._._.].>X[.S.S.[.>X]._._._._.'.-X=.< s k x w.0.e.0.e.q.z x 0.9.s z 0.0.0.x k k z x $ ~._._._._.'.=X<X<X=X_.G.J.,X2X>X-X'._.",
"_._._._._.'.>X[.S.S.[.>X]._._._.'.=X<X<X` & a p p p z Y b.b.M.Q.P.b.g.j.e.e.e.0.e.e.e.f * Y._._._._._.'.-X<X2X-XJ.G._.=X<X<X=X].",
"_._._._._.].>X,XS.S.].>X]._._.'.-X2X2X-XG.) % V P.#XyXiXuXiXiXiXiXiXiXiXuXwXb.r.r.e.z * Y._._._._._._._.'.=X<X<X=X_.G.J.=X2X<X>X",
"].].].].'.=X>X[.S.-.^.[.].].].=X>X>X=X_.` d s Q.iXiXiXiXiXiXiXiXiXiXiXiXiXiXiXQ.r.0.f * _._._._._._._._._.'.-X<X2X].S.S.^.=X<X2X",
">X>X>X>X>X1X2X[.S.' S.G.[.>X>X<X>X-XJ.` d f d.qXiXiXiXiXiXiXiXiXiXiXuXiXiXiXiX0Xb.e.j * _._._._._._._._._._.].=X<X].S.%.S.G.=X2X",
"7X7X7X7X7X>X-X^.S.' ' S.^.[.[.[.[./...& i f P.tX.X<.5..X9XiXiXiXiXuX9X X1.1.3XiXoXe.x d 4._._._._._._._._._._.].>X'.S.' ' S.P.[.",
"7X7X7X7X7X=XJ.S.' ' ' ' S.S.S.S.S.G.* $ p p @X3X1.2.{ 3 2.9XiXiXiX6X..3 [ 1.1.8XqX0.e.j # ).'._._._._._._._._.'.>X].S.' %.%.S.S.",
"].[.[.[.].^.-.' ' ' -.S.S.S.S.S.S.D.6 $ % k 6XtXiXiXrX X2.y iXiXyXt 1.;XtXiXiXiXiXT x x # |.,X'._._._._._._.'.=X2X].S.%.S.S.S.S.",
"S.S.S.S.S.-.%.' ' S.Y.].].[.].[.[._.L.4 j c 9XiXiXyX4X9X8X.XiXiXiX XrXrX9XtXiXiXiXZ s x i ;X>X-X]._._._._.'.-X<X2X[.S.S.J.[.[.[.",
"S.S.%.' ' ' ' %.S.I.].2X<X>X>X<X2X-XJ.6 s f 0XtX8X7. .y @. XtXiXtX.X1.{ o.T.9XiXtXP % k z P {.>X=X].].].].=X<X1X=X_.J.P.-X7X7X7X",
"].^.-.' ' ' ' -.Y.-X<X<X=X].].=X>X>X,.d $ % rX XN.o.y y y !.tXiXtXW.u u u  .6. XiXJ * $ c $ R.2X<X>X>X>X>X1X2X=XJ.G._.,X1X7X7X7X",
"2X-XJ.-.%.%.-.J.-X2X<X-X'._._.'.,XL.& i d & 9XtXiX8X.X1XrXiX9XiX9XiX8X X X4XtXrXtXP A Y s s F.=X<X7X7X2X7X1X=X_.G.J.,X2X<X>X>X>X",
"7X>X-X^.-.-.^.=X<X>X=X'._._._._.R.o % G Y d 0XiXiXiXiXiXiXrX8XiX8XrXiXiXiXiXiXiXiXG x.C.i g <.J.-X7X7X7X7X=XJ.G._.=X<X<X=X].].].",
">X>X2X[.S.S.[.2X>X-X'._._._._._.I.: # oXO.$ 6XiXiXiXiXiXuX9X9XiX9X9XtXiXiXiXiXiXiXU OX*X# $ 4.G._.].].'.]._.G.J.=X2X<X-X'._._._.",
"[.=X>X[.S.S.|.>X=X'.'._._._._._._.~.7 oXOX! @XrXtXiX9X4X9XiX9XiX0XuX9X4X9XiXiX0XeXA.OX&X4 # R._.G.S.S.S.S.G._.=X1X<X=X'._._._._.",
"_.].>X[.S.S.[.>X]._._._._._._._._._.q oX$XXX#X4XN.W.rXiXtX.X9X0X8X1XtXiXrXE.W.3XwXZ.$X*X4 U.<X=XJ.S.%.%.S.J.=X1X<X-X'._._._._._.",
"_.].>X[.S.S.[.>X'._._._._._._._._._.4.3.k.M.+XeX}.{ 8XiXiX1X- { @ 4XiXiX.X{  X9X*XC.3.3.7.{.<X<X-XP.S.S.^.-X<X<X=X'._._._._._._.",
"_.].>X[.S.S.,X:X]._._._._._._._._._._.*.=.$.l.qX4XU.7 { y X u rXy X e y 7 }.3XeXb.$.o.=._.'.-X<X2X'.S.S.].7X7X>X]._._._._._._._.",
"_.].>X[.S.S.,X>X]._._._._._._._._._._._._.=.* Q.tX.X4X.X3XE.W.}.W.!..X.X3X.XrX@X- J D.G._._.'.=X<X].S.S.].7X7X>X]._._._._._._._.",
"_.].>X[.S.S.[.>X=X'._._._._._._._._._.^.~.X.> O.eXrX8XtXiXiXiXiXiXiXiXiX9XrXtXl.1 : X O I._._.].<X].S.S.=X7X7X>X]._._._._._._._.",
"_.].>X[.S.S.[.2X>X-X'._._._._._._._._.e O + , I C.iXrXtXiXiX XX 3XiXiXtXrXiXoXI d C 8.- 5 P._.].<X].S.S.].2X2X>X]._._._._._._._.",
"_.].>X[.S.-.^.=X2X>X=X'._._._._._._.u e { 0 n F I XXtXtXiXiX4X  8XiXiXiXtXoXY F m J c.3.( w J.].>X].S.S.^.=X<X<X=X'._._._._._._.",
"_.].>X,XS.%.-.J.=X2X>X-X'._._._.Y.] { o.c.O.n E I V v.uXiXiX}.   XiXiXuXM.T I Q F Z P.Q.( O L.].<X].S.%.S.G.=X2X<X-X'._._._._._.",
"].].]._.G.S.S.G._.=X2X>X=X'._._.I.  o.P.E.X.m y.a.N F Q.yXiX.X  3XiXiXQ.G N y.u.A J P.E...5 %._.<X].S.' ' S.^.-X<X<X=X'._._._._.",
">X[.J.G._.[.[._.G.J.=X2X<X=X'.^.4.3  .W.T.} N W p.p.W M 3.8X9XX tX5X#.n W i.p.t.F K c.1.T._ O F.2X|.S.' ' %.-.J.=X2X1X;X'._._._.",
"[.).G.J.=X7X2X-XJ.G./.=X1X<X=XI.O 5.1.Q.6.J N t.p.p.p.W W $.M./ M.~ ~ ~ i.p.p.t.N C #.y P.) O F.-X/.G.S.S.S.S.G._.=X1X>X=X].].].",
"S.G./.=X1X7X2X<X=X_.G.J.=X2X<XR.O | c.c.N.} N W p.p.p.p.p.p.i.i.s.a.a.i.p.p.p.u.N ; r  . .} @ L.J.G._.[.[.,X[._.G.J.=X7X<X>X>X>X",
"S.J.=X2X1X>X>X<X7X=XJ.G._.-X1X).. e c.X.3.K N W p.p.p.p.p.p.p.p.s.s.s.p.p.p.p.t.N * 7 #.t 5.t 7 &.I.=X7X7X7X2X=XJ.G._.=X1X1X=X[.",
"[.=X1X<X=X].].=X<X1X=X_.G.J.~.| r } @. .y ; M W y.p.z.p.p.p.p.p.p.p.p.s.z.s.u.W N 1 @ @. .>.[ = &.=X<X2X2X7X2X<X=X/.G.J.=X=XJ.S.",
"7X2X<X-X]._._.'.;X<X7X=XJ.G.;.+ { 6.} @.; + b R W a.z.z.p.p.p.p.p.p.p.s.z.a.W R n 1 O y 6. .@.7 *.2X<X<X<X<X<X<X2X[.S.-.^._.G.S.",
"2X<X=X'._._._._.'.=X>X1X=X).&.O  .c. .3.7 + , M R E i.z.z.s.s.s.s.s.s.m.i.E R N 2 #   X 2.J @.q 4.<X=X'.].'.].=X>X,XS.%.-.G.).[.",
"7X>X=X'._._._._._.].;X<X7X=X:.7 T.o.2.{ ; + , , M M E a.m.m.m.m.m.m.m.a.Q N B b 1 # X + + + 7 @ 2.-X'._._._._.].>X[.S.' ' S.,X7X",
"7X2X<X-X]._._._._._.].=X<X<XD.r }.2.c.; 7.| O 7 | { n M E W Q Q W W W N n { { u O o D B.B.B.C   ;.]._._._._._.].>X[.S.' ' S.[.2X",
"7X7X7X<X=X'._._._._._.'.-X<XU.7 E.T.o.@ D.:.X 7 ( ( u )  .N.!.!.!.N. .{ u ( ( 7 O 0 C.Z.Z.Z.C.F ;._._._._._._.].>X[.S.' ' -.^.[.",
"7X7X7X2X<X-X'._._._._._.'.=XG.O J J 7 X ) r + 5 w u u ( ( W.U.1.U.!.] y u w 7 3 O L OXx.+X&XA.! *._._._._._._.].>X[.S.' ' %.-.S.",
"[.=X1X7X7X<X=X'.'._._._._.].K.= ! $.$.! 0 * * = 3 w e 7 7 7.7.| *.U.e e w ; ; < + D C.j.$X$XC.I *._._._._._._.].>X[.S.' ' %.-.S.",
"S.J.=X7X7X2X<X-X'._._._._.].R.L OX%X$X+Xk.Z > > 1 : : : : } ,.@.>. .- 2 2 B N N 1 2 j.x.$X&Xg.L L._._._._._._.].>X,XS.' ' -.^.[.",
"S.G.).=X<X7X7X<X=X'._._._.].K.L OXuX%X$X$Xk.> , b v v v v h , > , v v E E E E N 1 S V.V.*XC.L L._._._._._._._.].>X'.S.%.-.J.-X7X",
"[._.G.J.=X2X7X2X<X-X'._._.].P.K B.%X$Xx.OXk.> , n M E E R E n > b R R M , , > > + + 9 0 0 8 D./._._._._._._._.'.>X[.S.-.^.-X>X7X",
">X[.H.G._.-X<X7X2X>X=X].].=XR.Z x.$X$Xx.j.A o > , b N E Q Q m * , n B , q @.{ } J o C (.I.F.^._._._._._._._._.'.>X[.S.S.|.7X>X>X",
"].].[._.G.J.=X7X7X2X>X>X>X2X,X<.U OX$XB.n.K - J C h , n Z m , > > > , D } 6.>.>.J o P >X]._._._._._._._._._._.].>X].S.S.[.<X=X].",
"_.'.-X[.H.G._.-X>X7X7X7X7X>X=XI.[ f.b.l.l.H 3 t _ } < _ 0 H H Z D 9 } { 3.3.c.@.3 o P >X]._._._._._._._._._.].=X<X].S.S.[.>X]._.",
"_._.'.[.[._.G.J.;X7X7X7X7X-XJ.G.~.` [ { } [ q + J 3.t 6.} 2.,.@.>.} c.) 3.2.P.[ . # P >X]._._._._._._._._.'.-X<X2X[.S.S.[.>X]._.",
"_._._.'.-X].H.G.).[.[.[.[._.G.J.=X2X<X<X>X1Xc.# . O _ }  .@. . .o.o.o.r @.1.o.8 i l P <X=X'._._._._._._.'.=X<X1X-X^.-.S.[.>X]._.",
"_._._._.'.].[._.G.S.S.S.S.G./.=X<X<X=X'.'.=XF.- < l . . 3 4 @ . X X o . X O X s 9.s A 1X<X-X]._._._._.'.-X<X2X=XJ.S.%.S.[.>X]._.",
"_._._._._.].>X[.S.' ' %.-.J.=X7X<X-X'._._.'.5.4 9 < = = 6 4 ..H.K.K.D.% f 9.9.9.l A F.;X1X1X=X].].].'.=X<X<X=X^.-.' ' S.[.>X]._.",
"_._._._._.].>X[.S.' ' -.^.=X>X>X=X'._._._.L.( < Z C C Z C 6 | S.S.S.;.i d T T g p ` G.I.=X2X<X>X<X<X<X<X2X-XJ.-.' ' ' S.[.>X]._.",
"_._._._._.].>X[.S.%.-.J.;X7X1X-X]._._._._...4 C ! ! U L 2 ; ( ' ' %.;.> : 6 C 9 < H *.G./.[.[.[.].].].[.[._.G.S.S.S.%.S.[.<X=X].",
"_._._._._.].>X[.S.-.^.=X>X1X=X'._._._._.I.| C O.d.d.d.U 9 3 ` ' ' ;.4.7 ; G G S 0 2 J /.G.S.S.S.S.S.S.S.S.G._.[.].^.S.S.].2X>X>X",
"].'._._._.].>X[.S.S.[.2X1X-X'._._._._._.` - K d.d.d.d.d.U 6 | %.-.S.; 2 G L L L C - ) ].I.-.%.' ' ' ' ' S.J.=X2X>X[.H.G./.-X>X7X",
">X-X'._._.].>X[.S.S.|.>X=X'._._._._._._.| L +.+.d.d.d.d.L 9 | -.^.R.4 : O.+.d.d.O.C 9 J ,X^.-.' ' ' ' -.^.,X<X<X=X].[./.G.J.-X7X",
"7X<X=X]._.].>X[.S.S.[.>X]._._._._._._._.` C O.d.g.g.g.d.C 4.-.S.[.|.- = O.h.g.h.h.L ; r <X=XJ.-.%.' S.J.=X2X<X-X'.'.-X[.H.G./.,X",
"7X2X<X-X'.].>X[.S.S.[.>X]._._._._._._._.G.` C H L L L H 5./.S.S.|.{.3 2 S K K K H C = e >X1X=X^.S.-.^.=X<X<X=X'._._.'.[.[./.G.S.",
"].-X<X<X=X=X>X[.S.S.[.>X]._._._._._._._._.L...:...=.<.*.;X[.S.S.[.;X>.8 2 ; ; ; ; 3 q =.-X>X2X[.S.S.[.2X>X-X'._._._._.'.-X[.H.S.",
"S.J.-X2X<X<X2X[.S.S.[.>X]._._._._._._._._._._._._.].>X7X7X[.S.S.[.2X:X{ 0 9 2 2 4 6 .._.'.,X>X,XS.S.[.>X=X'.'._._._._._.'.].[.,X",
"' S.[.7X7X7X7X[.S.S.[.>X]._._._._._._._._._._._._.].>X7X2X[.S.S.,X7X2X<Xr ; 3 2 4 | _._._.'.>X[.S.S.[.>X'._._._._._._._._.].>X2X"
};
