/* XPM */
static char *result[] = {
/* columns rows colors chars-per-pixel */
"64 64 224 2 ",
"   c #060006",
".  c #090209",
"X  c #0B080A",
"o  c #130D14",
"O  c #1A161A",
"+  c #16080D",
"@  c #220307",
"#  c #2A0509",
"$  c #26080C",
"%  c #33060B",
"&  c #3D090E",
"*  c #37080C",
"=  c #290D12",
"-  c #3B0C12",
";  c #231814",
":  c #23141B",
">  c #25191B",
",  c #2B1C1B",
"<  c #2A1518",
"1  c #321411",
"2  c #391A13",
"3  c #3A1C1C",
"4  c #341917",
"5  c #2C110D",
"6  c #36221E",
"7  c #1F1925",
"8  c #2A1921",
"9  c #241B24",
"0  c #341D24",
"q  c #2B242C",
"w  c #342322",
"e  c #33252B",
"r  c #3B2627",
"t  c #2E2D39",
"y  c #352D36",
"u  c #3D343B",
"i  c #3B3B3B",
"p  c #353336",
"a  c #410A0F",
"s  c #4B0D11",
"d  c #460B10",
"f  c #540E13",
"g  c #580F14",
"h  c #47171B",
"j  c #5B1115",
"k  c #570F0F",
"l  c #611317",
"z  c #651418",
"x  c #6B161A",
"c  c #6A191C",
"v  c #73191C",
"b  c #7C1C1E",
"n  c #70171B",
"m  c #432315",
"M  c #4B2B14",
"N  c #512F15",
"B  c #58351A",
"V  c #461E26",
"C  c #4A2E2B",
"Z  c #452928",
"A  c #483739",
"S  c #583836",
"D  c #522E2A",
"F  c #692926",
"G  c #623D39",
"H  c #693524",
"J  c #59433F",
"K  c #664226",
"L  c #6B4727",
"P  c #724D29",
"I  c #76512D",
"U  c #7B542C",
"Y  c #69433D",
"T  c #745237",
"R  c #3B3944",
"E  c #4C3D44",
"W  c #443A45",
"Q  c #563C45",
"!  c #3A4466",
"~  c #4C4446",
"^  c #4C4349",
"/  c #454546",
"(  c #554849",
")  c #474655",
"_  c #554B56",
"`  c #5A5156",
"'  c #5A5659",
"]  c #6A4745",
"[  c #784946",
"{  c #66595A",
"}  c #7C554D",
"|  c #71665B",
" . c #424C6D",
".. c #585667",
"X. c #535D7C",
"o. c #5D5D71",
"O. c #655B63",
"+. c #5C637C",
"@. c #596164",
"#. c #6C6265",
"$. c #6E656C",
"%. c #656567",
"&. c #73696D",
"*. c #766B6C",
"=. c #636373",
"-. c #6A6574",
";. c #65697C",
":. c #756D73",
">. c #787578",
",. c #667372",
"<. c #811D1F",
"1. c #831E20",
"2. c #8C2123",
"3. c #872022",
"4. c #932425",
"5. c #9B2727",
"6. c #9C2728",
"7. c #9E2828",
"8. c #873A34",
"9. c #A12929",
"0. c #A53737",
"q. c #825C32",
"w. c #8B4E38",
"e. c #8C6535",
"r. c #946A35",
"t. c #9A6F37",
"y. c #916734",
"u. c #9D743D",
"i. c #84544D",
"p. c #99504E",
"a. c #A95247",
"s. c #926C4E",
"d. c #A27A44",
"f. c #A37C46",
"g. c #B26953",
"h. c #847A7C",
"j. c #877B7C",
"k. c #977873",
"l. c #9F7C6C",
"z. c #B26E6F",
"x. c #C97D63",
"c. c #AA8550",
"v. c #A9834E",
"b. c #948876",
"n. c #B7927F",
"m. c #D48F70",
"M. c #5B6683",
"N. c #676C83",
"B. c #757384",
"V. c #787A8A",
"C. c #6C7792",
"Z. c #737D96",
"A. c #787E90",
"S. c #757F9A",
"D. c #67708A",
"F. c #847D82",
"G. c #7D8398",
"H. c #7D8D86",
"J. c #7F8BA2",
"K. c #8A8286",
"L. c #888588",
"P. c #938A8A",
"I. c #83899B",
"U. c #878998",
"Y. c #978F91",
"T. c #999597",
"R. c #879A8F",
"E. c #A69A9A",
"W. c #B48E90",
"Q. c #8590A8",
"!. c #8B95AB",
"~. c #8A92A3",
"^. c #959CAC",
"/. c #9395A5",
"(. c #8C9BB4",
"). c #8897B0",
"_. c #878BA2",
"`. c #BD9FA0",
"'. c #95A4BB",
"]. c #98A7BE",
"[. c #9EA9BE",
"{. c #9AA3B5",
"}. c #9CB5A5",
"|. c #A9A7A7",
" X c #BAABAB",
".X c #A4ABBC",
"XX c #A0A5B4",
"oX c #B3B3B3",
"OX c #BBBBBB",
"+X c #A3BEAC",
"@X c #96AB9F",
"#X c #D99A82",
"$X c #D5A793",
"%X c #CBB7B5",
"&X c #E6B499",
"*X c #FDD5B8",
"=X c #F2CBB2",
"-X c #DAC6BB",
";X c #A5B1C6",
":X c #A9B6CA",
">X c #AAB2C2",
",X c #B3BFD2",
"<X c #A7B2C5",
"1X c #D4BFC0",
"2X c #B6C2D4",
"3X c #B8C3D5",
"4X c #BDC8DA",
"5X c #BDC7D8",
"6X c #C3C3C3",
"7X c #CCCCCC",
"8X c #CDC4C5",
"9X c #D7CBC8",
"0X c #C0CBDC",
"qX c #D2D2D2",
"wX c #DCDCDC",
"eX c #DED3D3",
"rX c #FBDEC9",
"tX c #EBD7D2",
"yX c #FBE4D7",
"uX c #E4E4E4",
"iX c #ECECEC",
"pX c #EBE7E7",
"aX c #F2F2F2",
"sX c #F4EEEA",
/* pixels */
"0X[.M.M.[.4X4X[.M.M.[.,X].(.(.(.(.(.(.(.(.(.(.(.(.'.,X;X0 B.M.! ! N.[.0X0X,X].(.(.(.(.].,X;XM.! ! M.[.0X0X,X[.(.(.(.(.(.(.(.(.(.",
",X[.Z.C.(.].[.Q.+.M.[.,X].(.(.(.(.(.(.(.(.(.(.(.'.;X_.A c V 0 8 8 0 -.:X,X,X].(.(.(.'.].].!.C.M.M.C.(.<X3X,X;X'.(.(.(.(.(.(.(.(.",
"'.[.[.).C.M.M.X.! M.;X,X].(.(.(.(.(.(.(.(.(.(.'.;XU.Q - 1.x d * a * e W ..o...Q ..{.<X;XZ.C.).[.[.^.C.S.<X0X3X:X'.(.(.(.(.(.(.(.",
"(.'.:X[.Z.M.! ! ! M.[.,X].(.(.(.(.(.(.(.(.'.'.;X/.E % g 4.4.v g z j s a a * * = 0 B.B.S.C.S.<X0X0X<XS.C.(.<X3X,X;X'.(.(.(.(.(.(.",
"(.(.'.].[.Q.X.! ! M.[.,X].(.(.(.(.(.(.(.(.].<X.Xr @ - x 1.4.4.b x <.1.1.1.z z f - @ @ W _.].,X0X0X,X;X(.C.S.<X0X2X:X'.(.(.(.(.(.",
"(.(.(.].:X[.Z.X. .M.[.,X].(.(.(.(.(.(.(.'.;X/.0 - f z 1.9.1.4.6.5.6.2.b x z f & # - a h V Z .X,X,X,X4X;XS.C.!.;X2X2X;X'.(.(.(.(.",
"(.(.(.(.'.].[.Q.M.M.].2X].(.(.(.(.(.(.'.:XU.E @ s n 1.6.9.6.6.9.1.9.6.2.v g l g s d f a C F.].].[.;X,X3X;X(.C.S.;X4X2X:X'.(.(.(.",
"(.(.(.(.(.].2X[.M.M.].2X].(.(.(.(.(.'.;XU.E # s v 1.4.9.9.9.9.4.x 2.6.6.1.g l v v f s - V B.).(.(.].:X3X0X;XS.C.(.;X2X2X;X].(.(.",
"(.(.(.(.(.].,XXXM.M.].,X].(.(.(.).'.;X{.A # d 1.9.9.6.6.7.5.5.2.g <.4.6.6.v j x 1.v - - a = N.Q.(.(.'.;X2X3X;X(.C.S.;X4X,X:X'.(.",
"(.(.(.(.(.].,X].M.M.;X,X].(.(.(.'.;X{.0 & f v 9.9.1.b b 5.b b 5.6.6.4.2.9.9.b z v 9.n l g a # -.(.(.(.'.:X2X4X;XS.C.).;X3X3X;X].",
"(.(.(.(.(.].,X;XM.M.].,X].(.(.'.-.E A - f v 4.9.1.z F p.z.k.j.z.z.g.0.4.1.9.4.1.l j 1.b f # * -.(.(.(.(.'.;X2X3X;X(.C.S.;X4X,X,X",
"'.'.].].].;X,X].M.X.Q.].].].].;XU.E @ # d b 9.z.`.eXaXaXaXaXaXaXaXaXaXpX`.b b b n g n n x a % -.(.(.(.(.(.'.:X2X4X[.M.M.Q.;X3X0X",
",X,X,X,X,X3X0X;XM.! M.C.[.,X,X,X4XF.y $ % x 9XaXaXaXaXaXaXaXaXaXaXaXaXaXaX Xl x n n g j n g # =.(.(.(.(.(.(.].;X,X[.M. .M.C.;X4X",
"0X0X0X0X0X,X;XQ.X.! ! M.Q.[.[.[.[.(.M.$ @ i.aXaXaXaXaXaXaXaXaXaXaXaXaXaXaXaXp.c f 1.n g s - = =.(.(.(.(.(.(.(.].,X].M.! ! M.Q.[.",
"0X0X0X0X4X;XS.X. .! ! ! M.M.M.M.M.C.F.= g z.aX6XT.OXwXaXaXaXaXaXtXoX:.:.7XaXW.v l 1.x n g = B.Q.(.(.(.(.(.(.(.].,X[.M.! ! ! M.M.",
"[.[.[.[.[.Q.X.! !  .X.M.M.M.M.M.M.C.G.= s Y.oX/ i O ..wXaXaXaXuXO.7 / %.O.wX$Xg s 1.1.1.x = !.'.(.(.(.(.(.(.'.;X3X[.M.! M.M.M.M.",
"M.M.M.M.M.M.! ! ! M.J.].[.[.[.[.[.(.D.W h E.wXaXuX6X,.p wXaXaXi @.6XiXaXaXiX1Xa - 1.9.4.x = {.:X'.(.(.(.(.'.:X3X4X[.M.M.F.;X[.[.",
"M.M.! ! ! ! !  .M.S.;X3X2X,X,X,X4X:XS.C.y |.aXaXuXwXuXoXaXaXaXOXwXiXwXaXaXaX9X% * 4.9.1.z = XX,X;X].].].].;X3X3X;X).C.S.:X0X0X0X",
"].Q.M.! ! ! ! M.J.:X2X2X;X].].;X,X4X;X).e 8XpX8X%.J / @XuXaXiX%X%.J ' P.iXpX8X@ % z 4.1.f = /.0X2X,X,X,X,X3X4X<XS.C.(.<X3X0X0X0X",
"4X;XZ.X.! ! M.Z.;X4X2X:X'.(.(.'.:X,X4X:Xy %XoXF./ i i >.uXaXiX@Xp p i @.L.8X9X} # s b n C ..Q.<X2X0X0X0X0X3X<X(.C.S.<X5X3X,X,X,X",
"0X,X;X_.M.M.J.;X2X2X;X'.(.(.(.(.'.;X2X2XE %XpXaXuXqXiXiXwXaXwXaXuX6X3XuXaXpX9Xl.@ % z f Q (.C.S.;X0X0X0X0X;XS.C.(.;X2X,X;X].].].",
",X,X4X[.M.M.;X,X2X:X'.(.(.(.(.(.(.'.:X,XN.W.aXaXaXaXaXiX7XaXwXwXaXaXaXaXaXaX-Xn.C @ s & E ;XS.C.(.].].].[.(.C.S.;X4X2X:X'.(.(.(.",
";X;X,X[.M.M.].,X;X].(.(.(.(.(.(.(.(.'.;X,XT.iXaXaXaXwXwXwXaXwXuXuXaXaXaXaXaXrX=X$X@ & % E 5X;X(.C.M.M.M.M.C.).;X3X3X;X'.(.(.(.(.",
"(.'.,X].M.M.;X,X].(.(.(.(.(.(.(.(.(.(.'.:XV.qXoX6X7XiXwX7XaXwXuXuX7XqX7X7XwX&Xx.p.8 $ _ ^.,X4X:XS.M. . .M.C.;X4X2X:X'.(.(.(.(.(.",
"(.].,X[.M.M.'.,X].(.(.(.(.(.(.(.(.(.(.(.'.-.7X|.^ iXaXiX>.>.%.7XaXaXOX' oXtXg.w.S o.O.S.'.;X,X2X:XF.M.M.).:X2X2X;X'.(.(.(.(.(.(.",
"(.].,X[.M.M.[.,X].(.(.(.(.(.(.(.(.(.(.(.(.=.E.qXL./ ' i X OXq p ,.b.p OXwX$X8.D R (.(.(.(.'.:X,X0X'.M.M.].0X0X,X].(.(.(.(.(.(.(.",
"(.].,X[.M.M.;X,X'.(.(.(.(.(.(.(.(.(.(.(.(.;.{ iX6X7X7XoXR.oXT.L.@XT.6X6XsXx.G < y G.(.(.(.(.].;X2X].M.M.].0X0X,X].(.(.(.(.(.(.(.",
"(.].,X[.M.M.;X,X;X'.(.(.(.(.(.(.(.(.(.(.(.{.U.h.aXwXaXaXiXOXwXaXaXpX7XaX&Xa.D 1 1 3 Z.(.(.(.(.].2X].M.M.[.0X0X,X].(.(.(.(.(.(.(.",
"(.].,X[.M.M.;X,X,X:X'.(.(.(.(.(.(.(.(.(.(.].>XB.Y.iXiXaXaXO 6XaXaXuXsX-Xa.F C E Q E R M.(.(.(.].2X[.M.M.].0X0X,X].(.(.(.(.(.(.(.",
"(.].,X].M.X._.<X,X,X;X].(.(.(.(.(.(.(.(.'.;X>X$.r l.sXaXiX  |.aXaXiX$Xa.F S ( $.F._ A W M.(.(.].,X].M.M.Q.].2X2X;X'.(.(.(.(.(.(.",
"(.].,X;XM. .X.S.:X4X,X:X'.(.(.(.(.(.(.'.:X;XF.2 B B | pXiXX OXiXeXp.8.F 3 #.&.L.`.-.N.W t (.(.].,X].M. .M.C.:X4X2X:X'.(.(.(.(.(.",
"'.].[.(.C.M.M.C.(.:X5X,X;X'.(.(.(.(.].;X2XD.4 M e.q.K C oX/ 8Xb.3 4 1 5 3 :.F.Y.Y.F.:.y t (.'.;X2X].M.! ! M.Q.:X2X2X;X'.(.(.(.(.",
",X;XS.C.).;X[.(.C.S.;X0X2X:X'.(.(.'.:X2X4X$.m L r.r.U K K K L L K K P K 2 ` P.P.h.|.>.{ E y {.2X4X.XM.! !  .X.S.<X5X5X:X'.(.(.(.",
"].!.C.S.;X0X0X;XS.C.(.;X2X,X;X].].;X2X3X;XO.m I r.t.r.e.I I I U I q.r.I 2 #.L.L.h.T.F.O.u o {.3X;X(.C.M.M.M.M.C.!.;X,X,X;X[.].].",
"M.C.(.>X,X0X0X5X>X(.C.S.;X4X2X,X,X2X4X;XS._ m U r.t.t.r.U U U U q.r.t.I 4 { O.h.P.:.P.&.y o .X<XS.C.)..X]..X;X(.C.S.;X0X,X,X,X,X",
"M.S.;X0X,X,X,X,X0X>XS.C.).:X3X0X0X2X;X).C._ 6 I r.t.t.t.u.d.t.t.t.r.t.U 1 1 e { P.' Y.F.^ o !.(.C.S.;X4X0X0X0X;XS.C.(.<X5X,X;X[.",
"[.<X,X,X;X'.'.;X,X,X:X^.C.S.;X4X0X;XS.C.(.&.m I r.r.t.t.t.t.t.t.t.q.e.q.m 1 A { F.F.>.*.~ o M.C.(.<X3X0X0X0X4X3X<X).C.Z.;X;XS.N.",
"0X5X,X:X'.(.(.'.:X,X4X;XS.C.(.[.[.Q.M.M..X>.h I u.d.t.t.t.t.t.u.d.q.U U U 2 > A $.E.>.$.( o +.Z.<X0X,X,X,X,X,X2X4X].M.M.Q.(.C.M.",
"0X,X<X'.'.(.(.(.'.;X,X,X;X(.C.M.M.M.! M.[.:.6 K u.v.d.d.d.u.d.u.d.U P I P 2 + q %.Y.h.%.A o G.;X3X3X;X].].].].;X,X;XM.! X.C.!.[.",
"0X,X;X'.(.(.(.(.(.'.:X4X3X;XS.M.! ! ! M.[.,.2 M e.v.v.c.c.c.v.v.t.U P H M 2 + y *.>.P.' q 7 ^.4X,X:X'.(.(.(.(.].,X[.M.! ! M.;X0X",
"0X0X,X,X'.(.(.(.(.'.'.;X2X2X;XQ.M.! ! M.;X:.4 N P e.d.c.c.c.v.r.U I B N M 1 > ` P.' Y.` t [.2X2X;X'.(.(.(.(.(.].,X[.M.! ! M.[.4X",
"0X0X0X,X;X'.(.(.(.(.(.'.:X2X4X;XZ.X. .M.].XX$.4 / T U e.e.T U U B B N m 2 1 A #.K.h.$.y i 4X2X:X'.(.(.(.(.(.(.].,X[.M.! ! X._.[.",
"0X4X0X0X,X:X'.(.(.(.(.(.'.;X2X2X;XQ.X.M.;X,XF.< u ~ | b.b.b.| J J A w ; + < O.h.:.T.` 9 i 2X;X'.(.(.(.(.(.(.(.].,X[.M.! !  .M.M.",
";X<X,X0X0X,X;X'.(.(.(.(.(.].,X0X4X[.M.M.XX,X_.1 q i ,.+XR.}.H.) / / u M Z ] j.F.*.Y.W y +.:X'.(.(.(.(.(.(.(.(.].,X[.M.! !  .X.M.",
"M.S.;X4X0X0X,X:X'.).(.(.(.].,X0X4X[.M.M.[.4X/.1 ; q @.@XR H.>.t t q i.m.m.*XP.*.>.{ O =.;X'.(.(.(.(.(.(.(.(.(.].,X[.M.! ! M.J.].",
"M.C.(.<X,X0X0X5X;X].(.(.(.].,X0X0X'.M.M.Q.;X/.1 O O R V.-.N.' 9 9 s.#X=XyXyX=Xk.i :.O =.].(.(.(.(.(.(.(.(.(.(.'.,X[.M. .X.Z.;X4X",
"[.).C.S.;X0X0X4X2X:X'.(.(.].,X0X0X[.M. .X.S.U.- 2 2 6 S A S Z 1 > w.#X*XrXsXrXk.O y ..^.].(.(.(.(.(.(.(.(.(.(.].,X[.M.X.Q.<X,X0X",
",X;XZ.Z.(.:X,X0X0X,X;X].].;X3X3X;X).C.M.M.C.B.1 M N B N 1 M B N 8 8.#X*X*XrX=Xs..   A.2X].(.(.(.(.(.(.(.(.(.(.'.,X[.M.M.;X0X,X,X",
"'.[.[.).C.S.;X4X0X4X,X,X,X,X0X>XZ.C.(.[..X).o.1 h B L K 4 B L D : w.m.*X*X=Xm.Y X . A.,X].(.(.(.(.(.(.(.(.(.(.].,X].M.M.].,X;X].",
").'.:X[.Z.C.).<X,X0X0X0X0X,X>X(.C.G.;X0X0X<X=.1 1 1 2 1 1 1 1 4 < g.&X*X=Xm.Y e e . A.,X].(.(.(.(.(.(.(.(.(.].;X2X].M.M.[.,X].(.",
"(.(.'.[.[.(.C.S.:X4X0X0X0X>XS.C.(.;X2X4X0X3XI.+ J A A O.8 ( A 1 < D Y ` T S 3 4 < . A.,X].(.(.(.(.(.(.(.(.'.:X2X4X].M.M.[.,X].(.",
"(.(.(.'.:X[.Z.C.(.;X[.[.[.(.C.S.:X4X2X2X,X2X~.. / ( ' *.A ` ( r C ^ ( ` ( u e w , . Z.,X;X'.(.(.(.(.(.(.].;X2X,X:XQ.M.M.[.,X].(.",
"(.(.(.(.'.[.[.(.C.M.M.M.M.C.!.;X2X2X;X'.'.;X~.  t A ^ ( ` ( ~ ^ ` F.L.F.j.~ y e e 7 I.4X,X,X'.(.(.(.(.].:X2X4X;XS.M. .M.[.,X].).",
"(.(.(.(.(.].,X[.M.! ! ! M.S.<X4X2X:X'.(.(.'.U.  . .   o $./ ( O.O.E.L.$.*.e > > y D.).;X,X,X;X].].].].;X2X2X;XJ.M.! ! M.;X,X].(.",
"(.(.(.(.(.].,X[.M.! ! M._.:X,X,X;X'.(.(.(.(.A.* ; : : > e o o O o q 9 : e > 6 0 8 y =.S.<X0X,X,X,X2X2X3X4X:XS.M.! ! ! M.[.,X].(.",
"(.(.(.(.(.'.,X[.M. .M.S.<X0X,X:X'.(.(.(.(.B.S a > > > w 8 R 9 # & f - < Z Z Z r 8 8 ;.C.(.XX].;X].].].].].(.C.M.M.M. .M.[.,X;X].",
"(.(.(.(.(.].,X[.M.M._.;X,X,X:X'.(.(.(.(.(.O.- 1 ; ; 4 r 8 ;. .V k c h r Z Y S C 0 8 U.!.C.M.M.M.M.M.M.M.M.C.(.[.'.F.M.M.].4X2X,X",
"].].(.(.(.'.,X[.M.M.[.5X,X:X'.(.(.(.(.J.J...> ; ; ; , w 8 V.M.W h 8 0 6 , [ Y D C 8 ^.<XS.X. .! ! ! ! ! M.S.;X4X2X;XS.C.).;X3X0X",
",X:X'.(.(.].,X[.M.M.'.,X;X].(.(.(.(.G.y q e w ; ; ; ; ; < V.M.X.I.W 8 9 , [ i.S < 8 !.3X;XQ.X.! ! ! ! M.F.:X3X2X;X].].(.C.S.;X0X",
"0X,X;X'.(.].,X[.M.M.[.,X].(.(.(.(.C.E C Z C Z ; ; ; ; > 8 V.M.N.[.E w D Y } i.Y 0 8 _.,X0X;XS.X. .! M.S.:X0X,X:X'.'.:X].S.C.(.[.",
"0X,X,X:X'.].,X].M.M.].,X].(.(.(.(.;.8 r G Y G r 6 , ; 6 8 V.M.X.-.( G [ i.i.Y C e .._.;X3X3X;XQ.M.M.S.;X3X2X;X'.(.(.'.].[.(.C.M.",
";X;X4X,X;X:X,X;XM.M.[.,X].(.(.(.(.;.9 ; S ] G C C 6 , r E U.M. .< S ] ] ] Y r q  .(.(.].:X2X4X[.M.M.].4X,X:X'.(.(.(.(.].;X[.S.M.",
"M.Z.<X0X,X,X4X[.M.M.;X,X].(.(.(.(.;.8 8 > 8 > 8 8 8 8 u ,X].M...8 8 8 q > 9 8 ..(.(.(.(.'.;X3X[.M.M.].2X;X'.'.(.(.(.(.(.'.].[.[.",
"! M.;X0X0X0X0X[.M.M.].,X].(.(.(.(.Q.G.S.A.A.Z.G.Z.I.^..X3X[.M.M._.XX{.^.G.G.G.G.(.(.(.(.(.].,X[.M.M.[.,X].(.(.(.(.(.(.(.(.].,X4X"
};
