/* XPM */
static char *result[] = {
/* columns rows colors chars-per-pixel */
"64 64 223 2 ",
"   c #020002",
".  c #090209",
"X  c #0E0E0E",
"o  c #1A080B",
"O  c #0D0710",
"+  c #140C13",
"@  c #110D1A",
"#  c #191919",
"$  c #1A1219",
"%  c #220207",
"&  c #2C0509",
"*  c #24070B",
"=  c #33070B",
"-  c #3C090D",
";  c #35080D",
":  c #280E13",
">  c #340C12",
",  c #231915",
"<  c #2A161B",
"1  c #26181B",
"2  c #2A1C1D",
"3  c #271317",
"4  c #321311",
"5  c #3C1C12",
"6  c #371919",
"7  c #2D170E",
"8  c #34221D",
"9  c #1C1520",
"0  c #231B22",
"q  c #2B1A22",
"w  c #241D28",
"e  c #321E24",
"r  c #2B242B",
"t  c #362322",
"y  c #3A2425",
"u  c #33252D",
"i  c #39262C",
"p  c #2B2634",
"a  c #372C35",
"s  c #393439",
"d  c #3F3129",
"f  c #420A0F",
"g  c #4B0C11",
"h  c #460C12",
"j  c #550E13",
"k  c #5D1116",
"l  c #561418",
"z  c #611217",
"x  c #651418",
"c  c #6C161A",
"v  c #63191D",
"b  c #74191C",
"n  c #7B1B1E",
"m  c #70171B",
"M  c #432313",
"N  c #4B2917",
"B  c #563418",
"V  c #551E24",
"C  c #7F1D20",
"Z  c #462A28",
"A  c #49322C",
"S  c #53342E",
"D  c #4E3333",
"F  c #47383A",
"G  c #5B3A37",
"H  c #4D2C30",
"J  c #77322B",
"K  c #633A37",
"L  c #6C322F",
"P  c #54433C",
"I  c #684427",
"U  c #684427",
"Y  c #75502D",
"T  c #7B552C",
"R  c #7E5931",
"E  c #6F4737",
"W  c #3D3A4B",
"Q  c #383952",
"!  c #2A2F49",
"~  c #483B45",
"^  c #3D4257",
"/  c #3A4466",
"(  c #4A4649",
")  c #564848",
"_  c #4A4855",
"`  c #574D56",
"'  c #545454",
"]  c #5A5255",
"[  c #5C575C",
"{  c #575450",
"}  c #684947",
"|  c #754B47",
" . c #66585C",
".. c #68524B",
"X. c #776254",
"o. c #424C6D",
"O. c #494A60",
"+. c #595768",
"@. c #535D7C",
"#. c #535A75",
"$. c #4C5162",
"%. c #655D63",
"&. c #675E6A",
"*. c #6A6467",
"=. c #73696C",
"-. c #696877",
";. c #736C75",
":. c #7B7274",
">. c #797577",
",. c #811D1F",
"<. c #841E21",
"1. c #8C2123",
"2. c #872022",
"3. c #932425",
"4. c #992627",
"5. c #9C2728",
"6. c #9E2828",
"7. c #902A2C",
"8. c #85342E",
"9. c #8A3D37",
"0. c #A12929",
"q. c #A23333",
"w. c #825C32",
"e. c #97473C",
"r. c #8B6333",
"t. c #8B653A",
"y. c #9A6F37",
"u. c #926936",
"i. c #9B713A",
"p. c #845248",
"a. c #8A574C",
"s. c #AE5A4C",
"d. c #926A4D",
"f. c #A17942",
"g. c #A27D4A",
"h. c #BE705E",
"j. c #847B7D",
"k. c #80777B",
"l. c #957B69",
"z. c #AA716E",
"x. c #C47157",
"c. c #C37765",
"v. c #A7824C",
"b. c #AA8550",
"n. c #9B8C73",
"m. c #D58A67",
"M. c #D08D70",
"N. c #EAA57A",
"B. c #5B6683",
"V. c #6C7389",
"C. c #74798B",
"Z. c #767886",
"A. c #6C7792",
"S. c #737D96",
"D. c #757F9A",
"F. c #6C6E80",
"G. c #857E83",
"H. c #AA7F81",
"J. c #7B8499",
"K. c #7F8AA1",
"L. c #8A8588",
"P. c #92898B",
"I. c #838A9C",
"U. c #858594",
"Y. c #989697",
"T. c #919392",
"R. c #AD9494",
"E. c #92A79B",
"W. c #B8A499",
"Q. c #838DA4",
"!. c #8590A8",
"~. c #8A95AD",
"^. c #9399AA",
"/. c #8C9BB4",
"(. c #8897B0",
"). c #929EB4",
"_. c #95A4BB",
"`. c #98A7BE",
"'. c #9EA9BE",
"]. c #9EA1B0",
"[. c #9CB4A5",
"{. c #A8A8A8",
"}. c #A3A9BA",
"|. c #B6B6B6",
" X c #BAB9B9",
".X c #B4ACAD",
"XX c #CD958B",
"oX c #C5A994",
"OX c #D8AC92",
"+X c #EABB9D",
"@X c #E9AA84",
"#X c #C9AFAF",
"$X c #F7C8A8",
"%X c #FCD4B6",
"&X c #F9D3B9",
"*X c #F1CAB2",
"=X c #A5B1C6",
"-X c #A9B6CA",
";X c #ACB6C9",
":X c #B3BFD2",
">X c #B8BDCB",
",X c #B6C2D4",
"<X c #B8C3D5",
"1X c #BDC8DA",
"2X c #B8C1CF",
"3X c #CBCBCB",
"4X c #C3C3C3",
"5X c #C0CBDC",
"6X c #CCCFD6",
"7X c #D4D4D4",
"8X c #DCDCDC",
"9X c #D7D6D7",
"0X c #D2CFD5",
"qX c #F6DBC9",
"wX c #E2D7D5",
"eX c #E7D1CA",
"rX c #F9E4D6",
"tX c #E4E4E3",
"yX c #ECECEC",
"uX c #ECE7E7",
"iX c #F2F2F2",
"pX c #F1F0EE",
"aX c #D4D9E0",
/* pixels */
"5X'.B.B.=X5X5X'.B.B.'.:X`././././././././././././.`.:X5X5X'.B./ / B.` ~ aX:X`././././.`.:X=XB./ / B.'.5X1X:X'./././././././././.",
":X'.S.A.(.`.'.!.@.B.'.:X`./././././././././././._.=X,X:X=X` e q q e V V ~ =X`./././._.'.`.~.A.B.B.A.^.=X1X:X=X_././././././././.",
"_.'.'.(.A.B.B.@.o.B.}.:X`./././././././././.K.` +.&.&.+.~ e - f - g n m > ` G._./._.=X=XA.A.~.=X=X~.A.D.;X1X:X;X_./././././././.",
"/._.-X'.S.@.o./ / B.'.:X`./././././././.A.V.+.& = ; - - - j k k j <.3.<.j & O.Q.`.`.'./.A.D.=X5X1X=XD.A.~.=X1X:X=X_././././././.",
"/.)._.`.`.!.@./ / B.'.:X`././././.(.K.K.a % & f k z m ,.<.<.n m <.5.3.n z & * ` =X'.A.A./.-X:X1X5X:X=X/.A.D.;X1X,X-X_./././././.",
"/././.`.-X'.S.@.o.B.'.:X`././././.F.e V h f - * f j x c ,.3.5.4.0.<.3.3.n z g > ~ ~.A.D.=X5X:X:X:X<X5X;XD.A.~.=X,X:X=X`././././.",
"/./././._.`.'.!.B.B.'.:X`././././.G.+.> g g h g x k k n 3.5.4.3.0.4.5.5.3.n x h * a G.=X:X:X=X`.'.=X:X:X=X~.S.D.=X1X,X-X_./././.",
"/././././.`.,X`.B.B.`.,X`././././.D.+.> h j k n m k x 3.0.4.<.b 0.0.0.0.5.3.<.x f * +.}.:X;X_././._.-X:X1X=XD.A./.=X,X,X=X`././.",
"/././././.`.:X`.B.B.'.:X_./././.Q.+.& g ; g n 3.k k <.0.6.1.m c 0.4.5.5.3.5.5.4.b & * %.~._.)./././._.=X,X<X=X/.A.D.=X1X:X-X_./.",
"/././././.`.:X`.B.B.'.:X`./././.~ > g z x n 3.x z <.6.6.<.4.6.0.0.b <.3.c <.5.5.3.x g ; ~ /./././././._.-X,X1X=XD.A.(.=X<X:X=X`.",
"/././././.`.:X=XB.B._.:X`././._.} ; = z <.n k x <.6.4.1.4.6.0.5.v } z.XXW.H.H.a.q.3.x g 6 a Z F././././._.=X,X,X=X/.A.D.=X1X<X:X",
"`.`.`.`.`.=X:X'.B.B.!.`.`.`.`.=X .= g m m x k b C n c c 6.7.R.#XyXiXiXiXiXiXiXiXyXwXH.h & : ~ S./././././._.-X,X1X`.B.B.!.=X<X5X",
":X:X:X:X:X<X5X'.B./ B.A.'.:X:X,X[ - z m j k c m c k j z 4.z.yXiXiXiXiXiXiXiXiXiXiXiXpX .> ~ Q./././././././.`.=X:X'.B.o.B.A.=X1X",
"5X5X5X5X5X:X=X!.@./ / B.!.'.'.'.` > f g k b b g n <.<.<.3.#XyX7X6XyXiXiXiXiXiXtX0X0XpX.X~ )./././././././././.`.:X'.B./ / B.!.'.",
"5X5X5X5X5X=XD.B./ / / / B.B.B.B.@.~ = b c b n z n 3.3.C v 0XL.( ~ P.yXiXiXiXtXn.~ ( Y.8X` ;X_././././././././.`.:X'.B./ / / B.B.",
"'.'.'.'.`.K.B./ / / B.B.B.B.B.B.B._ & ,.<.<.m - x 1.1.k v 7X|.3X^.s ' yXiXtX( W {.4X|.yX%.:X=X_././././././._.=X,X'.B./ B.B.B.B.",
"B.B.B.B.B.@.o./ / B.K.`.`.=X`.`.=X@.& n 4.4.m % j ,.<.z J uXiXiXtXaXT.8XiX7XY.aXyXiXiXiXY.1X<X-X`././././._.-X<X1X'.B.B.!.`.'.'.",
"B.B./ / / / / o.B.D.=X,X,X:X:X:X5XF.= b 4.5.n o ; b 3.b L uXtX.XJ.L..XyXiXyX XT.T.|.yXiX>X=X<X<X=X`.`.`.`.=X:X<X=X/.A.G.=X5X5X5X",
"`.!.B./ / / / @.K.-X,X,X=X`.`.=X:XG.& z 3.<.j % % k b h ~ 9XP.` X # ' tXiXtX' # @ ' Y.8X}.D.=X1X,X:X:X:X:X1X1X=XD.A.~.=X,X5X5X5X",
"1X=XA.B.o.o.@.D.=X1X,X-X_././._.;X=XG.j n c f * l.p.h = H 8X8X3X.X X8XtXiXtX8X{.E.4X9XwX=XA.(.=X,X5X5X5X5X:X=X/.A.D.=X1X,X:X:X,X",
"5X:X=X!.B.#.Q.=X,X,X=X_././././._.=X].6 z j & * OXa.Z E S yXiXiXpXiXpX8XiX8XyXiXiXiXiXiX<X/.A.J.=X5X5X5X5X=XD.A./.=X,X,X=X`.`.`.",
":X:X1X'.B.B.'.<X,X-X_././././././.`.^.: g f > G OXl.d.M.K tXiXiXiXiX8X8XiX9XtXiXiXiXiXiXaX=XS.A./.`.`.`.'./.A.D.=X5X,X-X_./././.",
"'.=X:X'.B.B.'.:X=X`./././././././.).Q.3 ; = G &X&X%X&X+XZ 9X8X8X8X7XtX8XiXtXtX8X9XtXwX8X1X<X=X/.A.B.B.B.B.A.!.=X,X,X=X_././././.",
"/.`.:X'.B.B.=X:X`./././././././././.(.J.H : Z s.m.+X$XN.m.wXT.;.tXiX8X X4X|.tXiXtX>.Y.9X;X,X1X=XD.B.o.o.B.D.=X1X,X-X_./././././.",
"/.`.:X'.B.B.=X:X`./././././././././././.Z.-.;.V s.h.M.N.N.qX|.*.4X8X|.# [ #  X8X{.;.|.aX_.=X,X,X-XG.B.B.!.-X,X,X=X_././././././.",
"/.`.:X'.B.B.`.:X`././././././././././././.`.^.< L e.x.N.@X*X8XY.' { s ' 3X' s ' [ .X9X2X/._.-X,X5X_.B.B.`.5X5X:X_./././././././.",
"/.`.:X'.B.B.'.:X`././././././././././././.).U.2 $ e.m.N.$X%XpX0X8XiXpX3X4X3XyXpXtX0XiX`././._.=X,X`.B.B.'.5X5X:X`./././././././.",
"/.`.:X'.B.B.'.:X=X_./././././././././././.;.6 4 7 J s.m.N.$XrXyX8XiXiX4X*.1XiXpX8XpX5X/./././.`.:X=XB.B.'.5X5X:X`./././././././.",
"/.`.:X'.B.B.'.1X:X-X_./././././././././.$.W F ) F Z J s.m.@X$XrXyXpXpX8X  tXiXpXyX6X_././././.`.:X`.B.B.`.5X5X:X`./././././././.",
"/.`.:X'.B.B.Q.=X1X:X=X`././././././.K.#.W (  .L.%.) S J s.x.M.M.eXiXiX2X  3XiXiX0X)./././././.`.:X`.B.B.K.`.1X,X=X_././././././.",
"/.`.:X'.B./ B.D.=X1X:X:X_./././././.K.O ) ;.j..X:.=.) 5 8.8.8.8.e.W.iX3X  7XiXW.~ V.(././././.`.:X`.B.o.B.A.=X1X,X-X_./././././.",
"`.`.'./.A.B.B.A./.=X:X:X=X_././././.K.@ ( :.P.Y.P.G. .4 ; 4 4 4 4 8 n.tXX yXW.R V > A./././._.=X,X`.B./ / B.(.-X,X,X=X_././././.",
":X=XD.A./.'.`./.A.D.=X1X,X-X_././.V.s ) %.L.R.=.Y.>.( 5 T Y I I U U U X.E f.u.r.L 7 Z././._.-X<X1X}.B./ / o.@.D.=X1X<X;X`./././.",
"'.~.A.D.=X5X5X=XD.S.(.=X,X,X=X`.`.-.X ) =.L.T.k.P.j.} M r.r.R Y Y Y Y T r.y.u.r.U 4 Z.)._.=X<X<X=X(.A.B.B.B.B.A./.=X:X>X=X`.`.`.",
"B.V./.=X<X5X5X,X=X~.A.D.=X1X<X:X,XV.+ ~ j.G.:.P.;.*.P M r.y.u.R R R w.r.y.y.y.r.U 4 C._.-X,X1X-XD.A.(.=X}.'.=X(.A.D.=X5X<X:X:X:X",
"B.D.=X1X<X:X:X,X5X=XD.A./.=X<X5X1XC.+ %.T.G.=.Y.) e 7 5 u.y.y.y.y.y.y.y.y.y.y.r.U 4 D.=X,X,X=X(.A.D.=X5X5X5X5X=XD.A./.=X<X:X=X'.",
"=X=X<X:X=X`.`.=X<X<X=X/.A.D.=X1X5X-.# %.;.k.j.G.] d 4 B u.w.r.y.y.y.y.y.y.y.y.r.U 4 ^.:X5X=XD.A.~.=X<X5X5X5X5X<X=X~.A.D.=X=XD.B.",
"<X<X:X:X`././._.-X<X5X=XD.A./.`.'.+.$ %.*.G.P. .u < N w.R T t.f.y.y.y.y.y.y.f.t.U 4 G.=X}./.A.D.=X5X<X:X:X:X:X<X5X`.B.@.!./.A.B.",
"5X:X=X_./././.)._.=X>X<X=X/.A.B.B.Q + ) *.L.L.] # * N Y Y Y r.f.f.f.f.f.f.f.v.t.B 4 $.B.B.A./.=X<X,X=X_._._.`.=X:X=XB.o.@.A./.=X",
"5X:X=X_./././././._.;X:X1X=XJ.B./ ! # u :.j.:.=.1 * 5 N I Y R y.v.v.b.b.b.v.v.R M > Q o.@.D.=X5X<X-X_././././.`.>X'.B./ / B.}.5X",
"5X5X<X;X_././././._._.=X,X,X=XK.@./ Q O >.G.*.R.s 3 5 N N I T R i.v.b.b.v.i.r.I 5 7 W @.!.=X<X:X=X_./././././.`.:X`.B./ / B.=X:X",
"5X5X5X:X=X_./././././._.-X,X1X=XJ.@.^ O ( -.>.L.%.H 4 5 M B B B R R t.R R R ..A 8 ^ #.J.=X1X<X-X_././././././.`.;X=XB./ / #.Q.=X",
"5X5X5X5X,X-X_./././././._.=X,X,X-X!.o.X p =.T.*.n.~ 3 o 7 A P P P >.n.n.n.{ ( a i #.!.=X<X<X=X_./././././././.`.:X`.B./ / o.@.B.",
"'.=X:X5X5X<X=X_./././././.`.,X1X1X'.#.p r [ L.*.P.=.P Z M s ^ ^ ^ E.E.E.[.' s 2 t B.'.1X:X-X_././././././././.`.:X=XB./ / o.@.B.",
"B.D.=X5X5X5X:X-X_././././.'.:X5X5X'.B.B.s a *.j.&.W.+Xm.m.E p s s E.-.[ [.^ r , y B.`.:X=X_./././././././././.`.>X'.B./ / @.!.'.",
"B.A./.=X,X5X5X,X=X_./././._.:X5X5X'.B.@.p s %.a oXqXrXqX$XM.| w # *.;.-.;.r # , t B.=X:X_././././././././././._.:X'.B.o.@.D.=X5X",
"=X~.A.D.=X5X5X5X,X-X_././._.2X5X5X'.B.o.^ ^ r $ oXrXrXqX&XM.L 2 7 A P D P 7 5 5 e B.}.:X`./././././././././.(.'.:X=XB.@.~.=X:X5X",
":X`.D.A./.=X,X5X1X,X=X`.`.=X,X<X=X/.A.B.B.W . . M.&XqX&X&Xh.L 6 B B 5 5 B B N 5 i B.=X;X`././././././././././._.:X`.B.B.'.5X:X:X",
"`.`.}.~.A.D.=X5X5X5X:X:X:X:X5X;XS.A./.}.'.$.. + d.@X$X%X&Xc.L t U U N M I I B 5 y B.'.:X`././././././././././.`.:X`.B.B.`.:X=X`.",
"/._.=X=XS.A./.=X:X5X5X5X5X:X;X~.A.J.=X5X5X+.@ d e a.@X%X&XN.p.< 6 4 4 4 6 4 4 4 e B.'.:X`./././././././././.`.=X,X`.B.B.`.:X`./.",
"/.)._.`.'.(.A.D.=X5X5X5X5X;XD.A./.=X,X1X5X&.O 6 4 Z G ) } G Z 4 4 ) F F *.a F A 9 B.`.,X`././././././././._.-X,X5X`.B.B.=X:X`./.",
"/././._.-X'.S.A.~.=X}.`.=X~.A.D.=X1X,X,X,X-.O 8 q i F ] ` ) ~ d y ] ( ( :.) { s @ B.`.,X=X`././././././._.=X,X,X-X!.B.B.`.:X`./.",
"/./././._.`.'./.A.B.B.B.B.A.~.=X,X,X=X`._.V.s i u s ] n.G.L.>.] ( ( ( ` ( ~ ~ 0 @ B.`.<X<X=X_././././._.-X,X5X=XD.B.o.B.'.:X`./.",
"/././././.`.:X'.B./ / o.@.D.=X1X,X=X_././.).I.q q q F :.&.Y.P. .*.F ] ) . . . . $ A./.=X<X<X=X`.`.`.`.=X,X,X=XK.B./ / B.'.:X`./.",
"/././././.`.:X'.B./ / @.~.=X:X:X=X_._././.-.a 1 t 2 2 u $ w 0 $ $ + 0 u 3 $ 3 : H ~.A.D.=X1X,X:X:X,X,X1X1X=XD.B./ / / B.'.:X`./.",
"/././././.`.:X`.B.o.@.D.=X5X:X;X_././././.#.2 1 Z Z Z y $ g g - & p p q e 0 3 : Z [ V.A.^.'.'.'.`.`.`.`.`./.A.B.B.B.o.B.'.:X=X`.",
"/././././.`.:X'.B.@.Q.=X:X:X=X`./././././.#.2 8 S G G Z q v z j i +._ e y , , , < q I.(.A.B.B.B.B.B.B.B.B.A./.'._.G.B.B.`.1X,X:X",
"`.`./././.`.:X'.B.B.=X1X:X;X_././././././.#.t S S | K , e e q Z @.D.&.q y , , , , 2 U.].A.@.o./ / / / / B.D.=X1X,X=XD.A.(.=X,X5X",
":X-X_././.`.:X'.B.B.=X:X=X_.)././././././.&.0 , E p.K 1 q q Q #.Q.=X-.< , , , , , y i i ` ~.@./ / / / B.G.-X,X,X=X`.`./.A.D.=X5X",
"5X,X=X`./.`.:X'.B.B.'.>X_././././././././.+.r 8 | a.| K H e ~ B.'.5X-.< , # , , < H H H F ` A.@.o./ B.D.-X5X,X-X_._.-X'.D.A./.'.",
"5X5X,X-X_.`.:X'.B.B.'.:X`././././././././.C._ t D } a.a.| K ~ O.'.5X-.2 2 , 8 A K | } H e u ~.!.B.B.D.-X,X,X=X_././._.'.'./.A.B.",
"`.=X,X,X=X=X,X`.B.B.'.:X`./././././././././.D.~ w D | | | } D a =X5XG.F 8 , y K | p.| Z < i =X'.B.B.`.1X,X-X_././././._.=X'.D.B.",
"B.D.=X5X:X,X5X'.B.B.'.:X_././././././././././.~.W q q q q q q a '.1X5XI.2 2 2 q q q w w q u '.'.B.B.`.,X=X_././././././._.`.'.'.",
"/ B.'.5X5X5X5X'.B.B.'.:X`./././././././././.(.(.S.Q.^.}.].I.#.#.'.5X5X-XJ.S.J.J.D.D.D.D.D.G.:X'.B.B.`.:X'././././././././.`.:X1X"
};
