/* XPM */
static char *result[] = {
/* columns rows colors chars-per-pixel */
"64 64 129 2 ",
"   c gray63",
".  c gray45",
"X  c #777777",
"o  c gray56",
"O  c #6C6C6C",
"+  c #5A5A5A",
"@  c #6D6D6D",
"#  c gray53",
"$  c #B2B2B2",
"%  c gray73",
"&  c gray51",
"*  c #9A9A9A",
"=  c #B9B9B9",
"-  c gray72",
";  c #ACACAC",
":  c #A9A9A9",
">  c gray80",
",  c LightGray",
"<  c gray34",
"1  c #222222",
"2  c #070707",
"3  c gray14",
"4  c gray20",
"5  c #4B4B4B",
"6  c gray55",
"7  c #979797",
"8  c #434343",
"9  c #676767",
"0  c #393939",
"q  c #868686",
"w  c #626262",
"e  c #717171",
"r  c #767676",
"t  c #7E7E7E",
"y  c #939393",
"u  c gray33",
"i  c DimGray",
"p  c #656565",
"a  c #535353",
"s  c gray31",
"d  c gray27",
"f  c #5D5D5D",
"g  c gray12",
"h  c #505050",
"j  c #373737",
"k  c #414141",
"l  c #686868",
"z  c #5F5F5F",
"x  c gray43",
"c  c gray42",
"v  c gray16",
"b  c #1D1D1D",
"n  c #161616",
"m  c #3F3F3F",
"M  c gray59",
"N  c gray46",
"B  c gray50",
"V  c #606060",
"C  c #515151",
"Z  c #4C4C4C",
"A  c gray29",
"S  c #0E0E0E",
"D  c #464646",
"F  c gray49",
"G  c #444444",
"H  c #2C2C2C",
"J  c #282828",
"K  c #2F2F2F",
"L  c #7C7C7C",
"P  c #727272",
"I  c #909090",
"U  c #555555",
"Y  c gray30",
"T  c #4E4E4E",
"R  c #3C3C3C",
"E  c #5B5B5B",
"W  c #585858",
"Q  c #7B7B7B",
"!  c gray25",
"~  c gray26",
"^  c gray22",
"/  c gray17",
"(  c #151515",
")  c gray13",
"_  c gray36",
"`  c #484848",
"'  c #A0A0A0",
"]  c gray37",
"[  c gray38",
"{  c gray66",
"}  c gray39",
"|  c gray15",
" . c #1B1B1B",
".. c #313131",
"X. c gray28",
"o. c #202020",
"O. c gray23",
"+. c gray8",
"@. c #343434",
"#. c #353535",
"$. c gray19",
"%. c gray21",
"&. c #3A3A3A",
"*. c #272727",
"=. c #929292",
"-. c gray11",
";. c #888888",
":. c #191919",
">. c #565656",
",. c #0B0B0B",
"<. c #6A6A6A",
"1. c #747474",
"2. c gray44",
"3. c #848484",
"4. c #494949",
"5. c #808080",
"6. c gray18",
"7. c #8B8B8B",
"8. c gray32",
"9. c gray52",
"0. c #131313",
"q. c #3E3E3E",
"w. c #252525",
"e. c gray24",
"r. c gray57",
"t. c #838383",
"y. c #323232",
"u. c #797979",
"i. c gray48",
/* pixels */
"  . X o O + + + @ X X X X X X X X X X X # o o o $ % % % % % % % & + + + * % % % = - - - ; : : : > , , , : : : : : : : : - - - - ",
"o < < < 1 2 2 2 3 4 4 4 4 4 4 4 4 4 4 4 5 < < < 6 7 7 7 7 7 7 7 8 2 2 2 9 7 7 7 O < < < 0 4 4 4 q 7 7 7 4 4 4 4 4 4 4 4 < < < < ",
"o < < < 1 2 2 2 3 4 4 4 4 4 4 4 4 4 4 4 5 < < < 6 7 7 7 7 7 7 7 8 2 2 2 9 7 7 7 O < < < 0 4 4 4 q 7 7 7 4 4 4 4 4 4 4 4 < < < < ",
"o < < < 1 2 2 2 3 4 4 4 4 4 4 4 4 4 4 4 5 < < < 6 7 7 7 7 7 7 7 8 2 2 2 9 7 7 7 O < < < 0 4 4 4 q 7 7 7 4 4 4 4 4 4 4 4 < < < < ",
"o < < < w 9 9 9 e r r r r r r r r r r r t & & & y 7 7 7 7 7 7 7 u 3 3 3 e 7 7 7 & X X X i p p p a s s s p p p p d d d d d d d d ",
"o < < < & 7 7 7 7 7 7 7 7 7 7 7 7 7 7 7 7 7 7 7 7 7 7 7 7 7 7 7 f 4 4 4 r 7 7 7 7 7 7 7 7 7 7 7 g 2 2 2 7 7 7 7 < < < < 4 4 4 4 ",
"o < < < & 7 7 7 7 7 7 7 7 7 7 7 7 7 7 7 7 7 7 7 7 7 7 7 7 7 7 7 f 4 4 4 r 7 7 7 7 7 7 7 7 7 7 7 g 2 2 2 7 7 7 7 < < < < 4 4 4 4 ",
"o < < < & 7 7 7 7 7 7 7 7 7 7 7 7 7 7 7 7 7 7 7 7 7 7 7 7 7 7 7 f 4 4 4 r 7 7 7 7 7 7 7 7 7 7 7 g 2 2 2 7 7 7 7 < < < < 4 4 4 4 ",
"; & & & h j j j 5 u u u u u u u k j j j 5 u u u u u u u u u u u l r r r z u u u x X X X c p p p v b b b 7 7 7 7 < < < < p p p p ",
"% 7 7 7 j 2 2 2 3 4 4 4 4 4 4 4 n 2 2 2 3 4 4 4 4 4 4 4 4 4 4 4 @ 7 7 7 u 4 4 4 5 < < < m 4 4 4 4 4 4 4 7 7 7 7 < < < < 7 7 7 7 ",
"% 7 7 7 j 2 2 2 3 4 4 4 4 4 4 4 n 2 2 2 3 4 4 4 4 4 4 4 4 4 4 4 @ 7 7 7 u 4 4 4 5 < < < m 4 4 4 4 4 4 4 7 7 7 7 < < < < 7 7 7 7 ",
"% 7 7 7 j 2 2 2 3 4 4 4 4 4 4 4 n 2 2 2 3 4 4 4 4 4 4 4 4 4 4 4 @ 7 7 7 u 4 4 4 5 < < < m 4 4 4 4 4 4 4 7 7 7 7 < < < < 7 7 7 7 ",
"M w w w N B B B V C C C C C C C Z A A A 1 S S S D C C C F q q q z G G G 0 4 4 4 H J J J K 4 4 4 4 4 4 4 f f f f L L L L P P P P ",
"o < < < & 7 7 7 O < < < < < < < < < < < 1 2 2 2 A < < < 6 7 7 7 f 4 4 4 4 4 4 4 n 2 2 2 3 4 4 4 4 4 4 4 4 4 4 4 7 7 7 7 < < < < ",
"o < < < & 7 7 7 O < < < < < < < < < < < 1 2 2 2 A < < < 6 7 7 7 f 4 4 4 4 4 4 4 n 2 2 2 3 4 4 4 4 4 4 4 4 4 4 4 7 7 7 7 < < < < ",
"o < < < & 7 7 7 O < < < < < < < < < < < 1 2 2 2 A < < < 6 7 7 7 f 4 4 4 4 4 4 4 n 2 2 2 3 4 4 4 4 4 4 4 4 4 4 4 7 7 7 7 < < < < ",
"o < < < & 7 7 7 I 6 6 6 U 0 0 0 Y < < < T A A A R 0 0 0 E w w w W C C C C C C Y U E E E 9 @ @ @ @ @ @ @ @ @ @ @ 7 7 7 7 J J J J ",
"o < < < & 7 7 7 7 7 7 7 u 4 4 4 5 < < < < < < < 0 4 4 4 C < < < < < < < < < < < & 7 7 7 7 7 7 7 7 7 7 7 7 7 7 7 7 7 7 7 2 2 2 2 ",
"o < < < & 7 7 7 7 7 7 7 u 4 4 4 5 < < < < < < < 0 4 4 4 C < < < < < < < < < < < & 7 7 7 7 7 7 7 7 7 7 7 7 7 7 7 7 7 7 7 2 2 2 2 ",
"o < < < & 7 7 7 7 7 7 7 u 4 4 4 5 < < < < < < < 0 4 4 4 C < < < < < < < < < < < & 7 7 7 7 7 7 7 7 7 7 7 7 7 7 7 7 7 7 7 2 2 2 2 ",
"Q 0 0 0 ! G G G W w w w < C C C U < < < Q 6 6 6 ~ 4 4 4 ^ 0 0 0 5 < < < / ( ) 1 a O O O O O O O _ u u u u u u u j j j j R R R R ",
"X 4 4 4 4 4 4 4 5 < < < < < < < < < < < & 7 7 7 G 4 4 4 4 4 4 4 ` < < < 1 2 2 2 R < < < < < < < m 4 4 4 4 4 4 4 2 2 2 2 < < < < ",
"X 4 4 4 4 4 4 4 5 < < < < < < < < < < < & 7 7 7 G 4 4 4 4 4 4 4 ` < < < 1 2 2 2 R < < < < < < < m 4 4 4 4 4 4 4 2 2 2 2 < < < < ",
"X 4 4 4 4 4 4 4 5 < < < < < < < < < < < & 7 7 7 G 4 4 4 4 4 4 4 ` < < < 1 2 2 2 R < < < < < < < m 4 4 4 4 4 4 4 2 2 2 2 < < < < ",
"' q q q q q q q 9 < < < ] [ [ [ t 6 6 6 _ G G G Q q q q q q q q c < < < d R R R T < < < < < < < c r r r r r r r 9 9 9 9 1 1 1 1 ",
"{ 7 7 7 7 7 7 7 O < < < z } } } q 7 7 7 u 4 4 4 q 7 7 7 7 7 7 7 P < < < < < < < < < < < < < < < & 7 7 7 7 7 7 7 7 7 7 7 2 2 2 2 ",
"{ 7 7 7 7 7 7 7 O < < < z } } } q 7 7 7 u 4 4 4 q 7 7 7 7 7 7 7 P < < < < < < < < < < < < < < < & 7 7 7 7 7 7 7 7 7 7 7 2 2 2 2 ",
"{ 7 7 7 7 7 7 7 O < < < z } } } q 7 7 7 u 4 4 4 q 7 7 7 7 7 7 7 P < < < < < < < < < < < < < < < & 7 7 7 7 7 7 7 7 7 7 7 2 2 2 2 ",
"U 4 4 4 4 4 4 4 5 < < < m 4 4 4 4 4 4 4 4 4 4 4 4 4 4 4 j Z Z Z 8 R R R |  . . ...R R R R R R R X.Z Z Z Z Z Z Z 9 9 9 9 J J J J ",
"U 4 4 4 4 4 4 4 5 < < < m 4 4 4 4 4 4 4 4 4 4 4 4 4 4 4 4 4 4 4 4 4 4 4 n 2 2 2 3 4 4 4 4 4 4 4 4 4 4 4 4 4 4 4 h < < < 4 4 4 4 ",
"U 4 4 4 4 4 4 4 5 < < < m 4 4 4 4 4 4 4 4 4 4 4 4 4 4 4 4 4 4 4 4 4 4 4 n 2 2 2 3 4 4 4 4 4 4 4 4 4 4 4 4 4 4 4 T < < < 4 4 4 4 ",
"U 4 4 4 4 4 4 4 5 < < < m 4 4 4 4 4 4 4 4 4 4 4 4 4 4 4 4 4 4 4 4 4 4 4 n 2 2 2 3 4 4 4 4 4 4 4 4 4 4 4 4 4 4 4 T < < < 4 4 4 4 ",
". < < < & 7 7 7 7 7 7 7 j 2 2 2 _ q q q q q q q q q q q q q q q 9 C C C o.2 2 2 _ q q q q q q q q q q q q q q q Z 0 0 0 q q q q ",
". < < < & 7 7 7 7 7 7 7 j 2 2 2 9 7 7 7 7 7 7 7 7 7 7 7 7 7 7 7 P < < < 1 2 2 2 9 7 7 7 7 7 7 7 7 7 7 7 7 7 7 7 Z 4 4 4 7 7 7 7 ",
". < < < & 7 7 7 7 7 7 7 j 2 2 2 9 7 7 7 7 7 7 7 7 7 7 7 7 7 7 7 P < < < 1 2 2 2 9 7 7 7 7 7 7 7 7 7 7 7 7 7 7 7 Z 4 4 4 7 7 7 7 ",
". < < < & 7 7 7 7 7 7 7 j 2 2 2 9 7 7 7 7 7 7 7 7 7 7 7 7 7 7 7 P < < < 1 2 2 2 9 7 7 7 7 7 7 7 7 7 7 7 7 7 7 7 Z 4 4 4 7 7 7 7 ",
"O.+.+.+.@.G G G G G G G @.H H H R G G G G G G G G G G G f w w w #.+.+.+.^ A A A + w w w T G G G G G G G G G G G r q q q g g g g ",
"$.2 2 2 3 4 4 4 4 4 4 4 4 4 4 4 4 4 4 4 4 4 4 4 4 4 4 4 C < < < J 2 2 2 R < < < < < < < m 4 4 4 4 4 4 4 4 4 4 4 t 7 7 7 g 2 2 2 ",
"$.2 2 2 3 4 4 4 4 4 4 4 4 4 4 4 4 4 4 4 4 4 4 4 4 4 4 4 C < < < J 2 2 2 R < < < < < < < m 4 4 4 4 4 4 4 4 4 4 4 t 7 7 7 / 2 2 2 ",
"%.S S S v %.%.%.&.O.O.O.O.O.O.O.%.4 4 4 0 O.O.O.O.O.O.O.h u u u *.2 2 2 ! _ _ _ _ _ _ _ D O.O.O.O.O.O.O.j %.%.%.Q =.=.=.K S S S ",
"l A A A s C C C N q q q q q q q s 4 4 4 c q q q q q q q D 0 0 0 -.2 2 2 V 6 6 6 6 6 6 6 ;.q q q q q q q ] C C C ] w w w h A A A ",
". < < < < < < < & 7 7 7 7 7 7 7 u 4 4 4 r 7 7 7 7 7 7 7 G 4 4 4 :.2 2 2 9 7 7 7 7 7 7 7 7 7 7 7 7 7 7 7 9 < < < < < < < < < < < ",
". < < < < < < < & 7 7 7 7 7 7 7 u 4 4 4 r 7 7 7 7 7 7 7 G 4 4 4 :.2 2 2 9 7 7 7 7 7 7 7 7 7 7 7 7 7 7 7 9 < < < < < < < < < < < ",
"@ h h h >.< < < t =.=.=.=.=.=.=.a 4 4 4 P =.=.=.=.=.=.=.d %.%.%.b ,.,.,.l 7 7 7 y =.=.=.=.=.=.=.=.=.=.=.<._ _ _ _ _ _ _ a h h h ",
"%.S S S 5 < < < E _ _ _ _ _ _ _ k 4 4 4 s _ _ _ _ _ _ _ U u u u m K K K 1.7 7 7 2._ _ _ _ _ _ _ _ _ _ _ 3.=.=.=.=.=.=.=.K S S S ",
"$.2 2 2 A < < < < < < < < < < < m 4 4 4 5 < < < < < < < < < < < ~ 4 4 4 r 7 7 7 O < < < < < < < < < < < # 7 7 7 7 7 7 7 / 2 2 2 ",
"$.2 2 2 A < < < < < < < < < < < m 4 4 4 5 < < < < < < < < < < < ~ 4 4 4 r 7 7 7 O < < < < < < < < < < < # 7 7 7 7 7 7 7 / 2 2 2 ",
"%.S S S ` u u u u u u u u u u u G O.O.O.Z u u u E _ _ _ _ _ _ _ 4.O.O.O.. o o o <.< < < U u u u u u u u 5.o o o o o o o 6.S S S ",
"@ h h h &.%.%.%.%.%.%.%.%.%.%.%.e o o o u %.%.%.& =.=.=.=.=.=.=.I o o o < O.O.O.T < < < k %.%.%.%.%.%.%.&.O.O.O.O.O.O.O.5 h h h ",
". < < < 0 4 4 4 4 4 4 4 4 4 4 4 r 7 7 7 u 4 4 4 q 7 7 7 7 7 7 7 7 7 7 7 u 4 4 4 5 < < < m 4 4 4 4 4 4 4 4 4 4 4 4 4 4 4 T < < < ",
". < < < 0 4 4 4 4 4 4 4 4 4 4 4 r 7 7 7 u 4 4 4 q 7 7 7 7 7 7 7 7 7 7 7 u 4 4 4 5 < < < m 4 4 4 4 4 4 4 4 4 4 4 4 4 4 4 T < < < ",
". < < < ! O.O.O.%.4 4 4 0 O.O.O.2.7.7.7.8.%.%.%.& =.=.=.o o o o o o o o u %.%.%.` h h h m %.%.%.%.%.%.%.%.%.%.%.&.O.O.O.u _ _ _ ",
". < < < 9.o o o 8.4 4 4 2.o o o R 0.0.0.q.u u u E _ _ _ k O.O.O.O.O.O.O.Z u u u w.S S S e.u u u u u u u u u u u 5.o o o r.=.=.=.",
". < < < 6 7 7 7 u 4 4 4 r 7 7 7 j 2 2 2 R < < < < < < < 0 4 4 4 4 4 4 4 5 < < < 1 2 2 2 R < < < < < < < < < < < # 7 7 7 7 7 7 7 ",
". < < < 6 7 7 7 u 4 4 4 r 7 7 7 j 2 2 2 R < < < < < < < 0 4 4 4 4 4 4 4 5 < < < 1 2 2 2 R < < < < < < < < < < < # 7 7 7 7 7 7 7 ",
". < < < t.6 6 6 U 0 0 0 @ q q q %.S S S O.C C C C C C C e.0 0 0 0 0 0 0 Y < < < y.g g g 5 w w w E < < < a C C C u.q q q 7.6 6 6 ",
". < < < E _ _ _ < u u u G O.O.O.4 K K K @.%.%.%.%.%.%.%.s u u u u u u u >.< < < i.7.7.7.o =.=.=.c < < < q.%.%.%.&.O.O.O.u _ _ _ ",
". < < < < < < < < < < < m 4 4 4 4 4 4 4 4 4 4 4 4 4 4 4 C < < < < < < < < < < < & 7 7 7 7 7 7 7 O < < < R 4 4 4 4 4 4 4 T < < < ",
". < < < < < < < < < < < m 4 4 4 4 4 4 4 4 4 4 4 4 4 4 4 C < < < < < < < < < < < & 7 7 7 7 7 7 7 O < < < R 4 4 4 4 4 4 4 T < < < ",
". < < < < < < < < < < < m 4 4 4 4 4 4 4 4 4 O.G G G G G u < < < < < < < < < < < Q 6 6 6 ;.q q q } C C C X.G G G G G G G + w w w ",
"U 4 4 4 S 2 2 2 3 4 4 4 4 4 4 4 n 2 2 2 9 7 7 7 7 7 7 7 w < < < < < < < < < < < < < < < m 4 4 4 4 4 4 4 t 7 7 7 7 7 7 7 7 7 7 7 ",
"U 4 4 4 S 2 2 2 3 4 4 4 4 4 4 4 n 2 2 2 9 7 7 7 7 7 7 7 w < < < < < < < < < < < < < < < m 4 4 4 4 4 4 4 t 7 7 7 7 7 7 7 7 7 7 7 ",
"U 4 4 4 S 2 2 2 3 4 4 4 4 4 4 4 n 2 2 2 9 7 7 7 7 7 7 7 w < < < < < < < < < < < < < < < m 4 4 4 4 4 4 4 t 7 7 7 7 7 7 7 7 7 7 7 ",
"U 4 4 4 S 2 2 2 3 4 4 4 4 4 4 4 n 2 2 2 9 7 7 7 7 7 7 7 w < < < V . . . . . . . . . . . z U U U U U U U y { { { { { { { { { { { "
};
